<svg width="20" height="20" viewBox="0 0 20 20" fill="none" xmlns="http://www.w3.org/2000/svg">
<path d="M14.5223 0.00416134L12.149 0C9.4826 0 7.75948 1.9319 7.75948 4.92203V7.19141H5.37319C5.16698 7.19141 5 7.37409 5 7.59943V10.8875C5 11.1128 5.16717 11.2953 5.37319 11.2953H7.75948V19.5922C7.75948 19.8175 7.92646 20 8.13266 20H11.2461C11.4523 20 11.6193 19.8173 11.6193 19.5922V11.2953H14.4094C14.6156 11.2953 14.7826 11.1128 14.7826 10.8875L14.7837 7.59943C14.7837 7.49124 14.7443 7.38762 14.6744 7.31105C14.6046 7.23448 14.5094 7.19141 14.4104 7.19141H11.6193V5.26763C11.6193 4.34298 11.8209 3.87358 12.9231 3.87358L14.5219 3.87295C14.728 3.87295 14.8949 3.69027 14.8949 3.46514V0.411972C14.8949 0.187052 14.7281 0.00457747 14.5223 0.00416134Z" fill="white"/>
</svg>
