<svg width="20" height="20" viewBox="0 0 20 20" fill="none" xmlns="http://www.w3.org/2000/svg">
<g clip-path="url(#clip0_182_1397)">
<path d="M14.9996 0H4.99988C2.25019 0 0 2.25019 0 4.99988V15.0001C0 17.7491 2.25019 20 4.99988 20H14.9996C17.7493 20 19.9995 17.7491 19.9995 15.0001V4.99988C19.9995 2.25019 17.7493 0 14.9996 0ZM18.3328 15.0001C18.3328 16.8376 16.8381 18.3333 14.9996 18.3333H4.99988C3.16218 18.3333 1.66671 16.8376 1.66671 15.0001V4.99988C1.66671 3.16193 3.16218 1.66671 4.99988 1.66671H14.9996C16.8381 1.66671 18.3328 3.16193 18.3328 4.99988V15.0001Z" fill="white"/>
<path d="M15.4173 5.83295C16.1077 5.83295 16.6673 5.27332 16.6673 4.58298C16.6673 3.89264 16.1077 3.33301 15.4173 3.33301C14.727 3.33301 14.1674 3.89264 14.1674 4.58298C14.1674 5.27332 14.727 5.83295 15.4173 5.83295Z" fill="white"/>
<path d="M10 5C7.23805 5 5.00012 7.23818 5.00012 9.99988C5.00012 12.7606 7.23805 15.0003 10 15.0003C12.7612 15.0003 14.9999 12.7606 14.9999 9.99988C14.9999 7.23818 12.7612 5 10 5ZM10 13.3335C8.15927 13.3335 6.66683 11.8411 6.66683 9.99988C6.66683 8.15867 8.15927 6.66671 10 6.66671C11.8407 6.66671 13.3332 8.15867 13.3332 9.99988C13.3332 11.8411 11.8407 13.3335 10 13.3335Z" fill="white"/>
</g>
<defs>
<clipPath id="clip0_182_1397">
<rect width="20" height="20" fill="white"/>
</clipPath>
</defs>
</svg>
