<svg width="140" height="32" viewBox="0 0 140 32" fill="none" xmlns="http://www.w3.org/2000/svg">
<g clip-path="url(#clip0_200_2908)">
<path fill-rule="evenodd" clip-rule="evenodd" d="M26.0908 11.8926L8.94878 7.09424V5.72183C10.8972 5.35515 13.326 5.06751 16.1169 5.11771C18.3585 5.15842 20.343 5.40841 22.0072 5.72183V9.20781H26.4279C26.4808 8.51516 26.5083 7.81776 26.5083 7.11663V1.87901C18.1766 -0.626337 9.27872 -0.626337 0.947365 1.87901V7.11663C0.947365 8.36252 1.03251 9.59654 1.19731 10.8126L24.9784 16.1628C25.4604 14.7772 25.834 13.3498 26.0908 11.8926Z" fill="#5F73FA"/>
<path fill-rule="evenodd" clip-rule="evenodd" d="M13.8183 24.4822C11.4238 22.9298 9.48443 20.8517 8.11271 18.4557C10.6398 18.1954 13.1669 17.9354 15.694 17.6751C11.0363 16.4013 6.3793 15.1276 1.72194 13.8539C2.55482 17.3804 4.5759 23.4222 9.87826 28.4565C11.2018 29.7136 12.5437 30.731 13.8183 31.556C18.5209 28.5071 22.0942 24.1553 24.1846 19.1499L19.5162 18.4681C18.1448 20.8584 16.2091 22.9325 13.8183 24.4822Z" fill="#4EB80D"/>
<path d="M41.6989 16.6956C44.6633 16.6956 46.6337 15.2174 46.6337 12.7304C46.6337 10.4174 44.89 9.51303 42.0825 8.90433C40.3911 8.52172 39.9726 8.27825 39.9726 7.72172C39.9726 7.25216 40.3736 6.90433 41.1932 6.90433C42.2743 6.90433 43.495 7.32172 44.611 8.10433L46.3024 5.72172C44.9772 4.66085 43.3555 4.10433 41.2804 4.10433C38.3509 4.10433 36.5548 5.73911 36.5548 7.99998C36.5548 10.5391 38.5601 11.2695 41.1583 11.8609C42.8149 12.2435 43.216 12.5217 43.216 13.0261C43.216 13.5826 42.7277 13.8956 41.821 13.8956C40.4085 13.8956 39.0658 13.3913 37.8626 12.4348L35.9794 14.6782C37.479 16.0174 39.5366 16.6956 41.6989 16.6956ZM51.6557 16.4869V13.3391L52.8938 11.9652L55.9628 16.4869H60.0257L55.2479 9.54781L59.8688 4.31303H55.8582L51.6557 9.25216V4.31303H48.2728V16.4869H51.6557ZM67.9249 16.4869V11.8782L72.5633 4.31303H68.7794L66.2509 8.74781L63.7399 4.31303H59.8862L64.5246 11.9304V16.4869H67.9249ZM79.486 16.7304C82.1889 16.7304 83.7408 15.5652 84.8917 13.9826L82.3458 12.1739C81.6134 13.0609 80.8636 13.6522 79.5907 13.6522C77.8818 13.6522 76.6786 12.2261 76.6786 10.4C76.6786 8.59129 77.8818 7.14781 79.5907 7.14781C80.759 7.14781 81.5785 7.68694 82.276 8.55651L84.7522 6.64346C83.671 5.14781 82.1191 4.06955 79.6255 4.06955C75.9288 4.06955 73.1911 6.85216 73.1911 10.4C73.1911 14.0696 75.9985 16.7304 79.486 16.7304ZM92.477 16.7304C96.2435 16.7304 99.0684 13.8956 99.0684 10.4C99.0684 6.86955 96.2784 4.06955 92.5119 4.06955C88.7454 4.06955 85.9205 6.90433 85.9205 10.4C85.9205 13.9304 88.7105 16.7304 92.477 16.7304ZM92.5119 13.6869C90.6635 13.6869 89.3906 12.1565 89.3906 10.4C89.3906 8.60868 90.6286 7.11303 92.477 7.11303C94.3428 7.11303 95.6158 8.64346 95.6158 10.4C95.6158 12.1913 94.3777 13.6869 92.5119 13.6869ZM103.41 16.4869L104.282 14.313H108.99L109.88 16.4869H113.507L108.31 4.22607H105.049L99.8531 16.4869H103.41ZM108.014 11.6869H105.276L106.654 8.22607L108.014 11.6869ZM120.569 16.7304C123.272 16.7304 124.824 15.5652 125.974 13.9826L123.429 12.1739C122.696 13.0609 121.946 13.6522 120.673 13.6522C118.965 13.6522 117.761 12.2261 117.761 10.4C117.761 8.59129 118.965 7.14781 120.673 7.14781C121.842 7.14781 122.661 7.68694 123.359 8.55651L125.835 6.64346C124.754 5.14781 123.202 4.06955 120.708 4.06955C117.012 4.06955 114.274 6.85216 114.274 10.4C114.274 14.0696 117.081 16.7304 120.569 16.7304ZM130.805 16.4869V11.8609H135.147V16.4869H138.53V4.31303H135.147V8.86955H130.805V4.31303H127.422V16.4869H130.805Z" fill="white"/>
<path d="M39.2148 28.6699L40.7264 24.261L42.238 28.6699H43.1696L45.314 22.4904H44.1803L42.7126 27.0396L41.201 22.4729H40.287L38.7754 27.0396L37.3077 22.4904H36.1388L38.2832 28.6699H39.2148ZM54.7018 28.6261V27.6619H51.1776V26.014H54.2623V25.0499H51.1776V23.4546H54.6578V22.4904H50.0966V28.6261H54.7018ZM68.5732 28.6261V23.4897H70.5243V22.4904H65.5324V23.4897H67.4835V28.6261H68.5732ZM76.423 28.6261V26.4874H77.7588L79.288 28.6261H80.5624L78.9013 26.3033C79.7626 26.0579 80.369 25.4531 80.369 24.4451C80.369 23.2618 79.5253 22.4904 78.084 22.4904H75.342V28.6261H76.423ZM78.0049 25.532H76.423V23.4721H77.9961C78.7959 23.4721 79.2705 23.8315 79.2705 24.4889C79.2705 25.1288 78.7783 25.532 78.0049 25.532ZM88.0518 28.6261V26.1806L90.495 22.4904H89.2558L87.5157 25.2076L85.7931 22.4904H84.5188L86.962 26.2069V28.6261H88.0518ZM102.512 28.6261V26.0403H105.447V28.6261H106.528V22.4904H105.447V25.0411H102.512V22.4904H101.431V28.6261H102.512ZM112.366 28.6261L112.998 27.1448H115.907L116.531 28.6261H117.674L114.967 22.4466H113.965L111.258 28.6261H112.366ZM115.512 26.1893H113.394L114.448 23.7351L115.512 26.1893ZM123.485 28.6261V26.4874H124.821L126.35 28.6261H127.624L125.963 26.3033C126.824 26.0579 127.431 25.4531 127.431 24.4451C127.431 23.2618 126.587 22.4904 125.146 22.4904H122.404V28.6261H123.485ZM125.067 25.532H123.485V23.4721H125.058C125.858 23.4721 126.332 23.8315 126.332 24.4889C126.332 25.1288 125.84 25.532 125.067 25.532ZM134.727 28.6261C136.66 28.6261 137.996 27.285 137.996 25.5582C137.996 23.814 136.66 22.4904 134.727 22.4904H132.433V28.6261H134.727ZM134.727 27.6444H133.514V23.4721H134.727C136.019 23.4721 136.862 24.3574 136.862 25.5582C136.862 26.7766 136.019 27.6444 134.727 27.6444Z" fill="#475C7F"/>
</g>
<defs>
<clipPath id="clip0_200_2908">
<rect width="138.105" height="32" fill="white" transform="translate(0.947365)"/>
</clipPath>
</defs>
</svg>
