<svg width="133" height="56" viewBox="0 0 133 56" fill="none" xmlns="http://www.w3.org/2000/svg">
<path d="M65.8 15.5002L66.98 12.5402H72.18L73.36 15.5002H77.22L71.34 1.42021H67.88L62 15.5002H65.8ZM69.58 5.92021L71.04 9.66022H68.12L69.58 5.92021Z" fill="white"/>
<path d="M83.705 15.7802C85.385 15.7802 86.765 15.3802 87.825 14.5602C88.885 13.7402 89.425 12.6602 89.425 11.2802C89.425 10.0802 89.045 9.14021 88.285 8.48022C87.525 7.82022 86.465 7.26021 85.125 6.82022C84.545 6.64021 83.625 6.40022 83.205 6.26022L82.565 6.04022C82.145 5.86022 81.985 5.66022 81.985 5.40022C81.985 4.78022 82.605 4.48022 83.825 4.48022C84.625 4.48022 85.445 4.62022 86.305 4.88022C87.165 5.14022 87.905 5.46022 88.525 5.84022V2.38022C87.065 1.60021 85.485 1.22021 83.785 1.22021C80.425 1.22021 78.285 2.72021 78.285 5.42022C78.285 6.24022 78.525 6.98022 78.785 7.48022C79.085 7.98022 79.745 8.46022 80.145 8.76022C80.365 8.90022 80.665 9.04022 81.065 9.20022L81.985 9.56021L83.005 9.86022L84.265 10.2402C84.505 10.3202 85.005 10.4602 85.165 10.6002C85.485 10.8202 85.705 11.0002 85.705 11.4202C85.705 12.1602 84.985 12.5202 83.565 12.5202C82.665 12.5202 81.705 12.3402 80.685 11.9602C79.665 11.5802 78.865 11.1402 78.285 10.6002V14.2802C79.745 15.2802 81.545 15.7802 83.705 15.7802Z" fill="white"/>
<path d="M95.0798 15.5002V9.28022L100.56 15.5002H104.94L98.5198 7.94022L103.94 1.50021H99.6198L95.0798 6.84021V1.50021H91.4798V15.5002H95.0798Z" fill="white"/>
<path d="M69.8 34.78V23.94H74.02V20.78H62V23.94H66.2V34.78H69.8Z" fill="url(#paint0_linear_182_1370)"/>
<path d="M79.5245 34.78V29.44H80.9645L84.9245 34.78H89.0645L84.8245 29.04C86.5245 28.38 87.5445 26.92 87.5445 25.1C87.5445 23.84 87.0845 22.8 86.1645 22C85.2645 21.18 84.0445 20.78 82.5045 20.78H75.9245V34.78H79.5245ZM79.5245 23.82H82.3045C83.2845 23.82 83.9045 24.36 83.9045 25.18C83.9045 26 83.2845 26.5 82.3045 26.5H79.5245V23.82Z" fill="url(#paint1_linear_182_1370)"/>
<path d="M90.3148 28.92C90.3148 30.86 90.8948 32.38 92.0548 33.46C93.2148 34.52 94.6749 35.06 96.4548 35.06C98.2348 35.06 99.6948 34.52 100.855 33.46C102.015 32.38 102.595 30.86 102.595 28.92V20.78H98.9949V29.1C98.9949 30.88 97.9548 31.74 96.4548 31.74C94.9949 31.74 93.9148 30.88 93.9148 29.1V20.78H90.3148V28.92Z" fill="url(#paint2_linear_182_1370)"/>
<path d="M110.044 35.06C111.724 35.06 113.104 34.66 114.164 33.84C115.224 33.02 115.764 31.94 115.764 30.56C115.764 29.36 115.384 28.42 114.624 27.76C113.864 27.1 112.804 26.54 111.464 26.1C110.884 25.92 109.964 25.68 109.544 25.54L108.904 25.32C108.484 25.14 108.324 24.94 108.324 24.68C108.324 24.06 108.944 23.76 110.164 23.76C110.964 23.76 111.784 23.9 112.644 24.16C113.504 24.42 114.244 24.74 114.864 25.12V21.66C113.404 20.88 111.824 20.5 110.124 20.5C106.764 20.5 104.624 22 104.624 24.7C104.624 25.52 104.864 26.26 105.124 26.76C105.424 27.26 106.084 27.74 106.484 28.04C106.704 28.18 107.004 28.32 107.404 28.48L108.324 28.84L109.344 29.14L110.604 29.52C110.844 29.6 111.344 29.74 111.504 29.88C111.824 30.1 112.044 30.28 112.044 30.7C112.044 31.44 111.324 31.8 109.904 31.8C109.004 31.8 108.044 31.62 107.024 31.24C106.004 30.86 105.204 30.42 104.624 29.88V33.56C106.084 34.56 107.884 35.06 110.044 35.06Z" fill="url(#paint3_linear_182_1370)"/>
<path d="M124.448 34.78V23.94H128.668V20.78H116.648V23.94H120.848V34.78H124.448Z" fill="url(#paint4_linear_182_1370)"/>
<path d="M23.9995 11.1996C11.862 11.1875 2.01184 20.9354 1.99965 32.9723C1.9959 36.8984 3.06088 40.753 5.08396 44.1278L4.01523 52.6039C3.8793 53.6916 4.65741 54.6827 5.7552 54.8184C5.83676 54.8287 5.91832 54.8333 5.99988 54.8333C6.16394 54.8333 6.32706 54.8138 6.4855 54.7738L14.6463 52.7508C17.5684 54.1277 20.7643 54.8389 23.9995 54.8333C36.1493 54.8333 45.9994 45.0659 45.9994 33.016C45.9994 20.9661 36.1493 11.1996 23.9995 11.1996ZM23.9995 50.8672C21.1412 50.8709 18.325 50.1913 15.7881 48.886C15.505 48.7419 15.191 48.6675 14.8731 48.6675C14.7091 48.6675 14.546 48.687 14.3875 48.727L8.34734 50.2238L9.13951 43.927C9.19763 43.4677 9.0917 43.0019 8.83952 42.6114C3.50243 34.3018 5.96895 23.2755 14.3472 17.9827C22.7264 12.6899 33.845 15.1359 39.1821 23.4447C44.5191 31.7544 42.0526 42.7806 33.6743 48.0734C30.7832 49.8994 27.427 50.8691 23.9995 50.8672ZM4.68835 6.65799C4.87303 9.13565 5.68958 11.2284 7.08174 12.8117C5.8827 13.7916 4.77084 14.8738 3.76118 16.0452C3.25587 14.9054 2.90619 13.4513 2.90619 11.6105C2.90619 9.7697 3.48556 8.073 4.6771 6.67286C4.68085 6.66822 4.68835 6.65799 4.68835 6.65799ZM7.06861 1.5C6.94674 1.5 6.82487 1.52696 6.71143 1.58088C4.31148 2.75417 0 5.68366 0 11.6096C0 16.5584 2.11027 19.4228 3.7818 20.9001C5.86489 17.5309 8.77108 14.7362 12.2313 12.7754C6.86893 11.0769 7.31517 5.30713 7.8786 2.49199C7.94422 2.18612 7.82891 1.87002 7.58142 1.67664C7.43236 1.5595 7.25142 1.5 7.06861 1.5ZM43.3107 6.65799L43.322 6.671C44.5135 8.07207 45.0929 9.68696 45.0929 11.6087C45.0929 13.5303 44.7432 14.9035 44.2379 16.0433C43.2282 14.8719 42.1164 13.7897 40.9173 12.8098C42.3085 11.2275 43.126 9.13565 43.3107 6.65799ZM40.9305 1.5C40.7476 1.5 40.5667 1.5595 40.4186 1.67571C40.1711 1.86909 40.0558 2.18519 40.1214 2.49106C40.6839 5.3062 41.1311 11.0759 35.7687 12.7745C39.2289 14.7352 42.1351 17.5299 44.2182 20.8992C45.8897 19.4219 48 16.5575 48 11.6087C48 5.68273 43.6885 2.75324 41.2886 1.57995C41.1742 1.52696 41.0514 1.5 40.9305 1.5Z" fill="white"/>
<path d="M25.9992 33.0167C25.9992 31.9216 25.1039 31.0337 23.9995 31.0337C22.8952 31.0337 21.9999 31.9216 21.9999 33.0167C21.9999 34.1119 22.8952 34.9998 23.9995 34.9998C25.1039 34.9998 25.9992 34.1119 25.9992 33.0167Z" fill="url(#paint5_linear_182_1370)"/>
<path d="M35.9993 33.0167C35.9993 31.9216 35.104 31.0337 33.9996 31.0337C32.8953 31.0337 32 31.9216 32 33.0167C32 34.1119 32.8953 34.9998 33.9996 34.9998C35.104 34.9998 35.9993 34.1119 35.9993 33.0167Z" fill="url(#paint6_linear_182_1370)"/>
<path d="M16 33.0167C16 31.9216 15.1047 31.0337 14.0004 31.0337C12.896 31.0337 12.0007 31.9216 12.0007 33.0167C12.0007 34.1119 12.896 34.9998 14.0004 34.9998C15.1047 34.9998 16 34.1119 16 33.0167Z" fill="url(#paint7_linear_182_1370)"/>
<path d="M69.2 54.78C70.7 54.78 71.92 54.42 72.82 53.68C73.74 52.94 74.2 51.96 74.2 50.76C74.2 49.74 73.92 48.92 73.38 48.26C72.84 47.6 72.22 47.2 71.54 47.04C72.4 46.64 73.18 45.68 73.18 44.32C73.18 42.02 71.38 40.78 68.82 40.78H62V54.78H69.2ZM65.6 48.8H68.5C69.56 48.8 70.26 49.36 70.26 50.3C70.26 51.24 69.6 51.78 68.5 51.78H65.6V48.8ZM65.6 43.7H68.28C69.16 43.7 69.72 44.16 69.72 44.94C69.72 45.68 69.16 46.14 68.28 46.14H65.6V43.7Z" fill="white"/>
<path d="M80.343 50.62C79.643 49.88 79.303 48.92 79.303 47.78C79.303 46.64 79.643 45.68 80.343 44.94C81.043 44.2 81.923 43.82 82.983 43.82C84.043 43.82 84.903 44.2 85.603 44.94C86.303 45.68 86.663 46.64 86.663 47.78C86.663 48.92 86.303 49.88 85.603 50.62C84.903 51.36 84.043 51.74 82.983 51.74C81.923 51.74 81.043 51.36 80.343 50.62ZM88.263 52.94C89.663 51.52 90.363 49.8 90.363 47.78C90.363 45.76 89.663 44.04 88.263 42.62C86.863 41.2 85.103 40.5 82.983 40.5C80.863 40.5 79.103 41.2 77.703 42.62C76.303 44.04 75.603 45.76 75.603 47.78C75.603 49.8 76.303 51.52 77.703 52.94C79.103 54.36 80.863 55.06 82.983 55.06C85.103 55.06 86.863 54.36 88.263 52.94Z" fill="white"/>
<path d="M96.9055 50.62C96.2055 49.88 95.8655 48.92 95.8655 47.78C95.8655 46.64 96.2055 45.68 96.9055 44.94C97.6055 44.2 98.4855 43.82 99.5455 43.82C100.605 43.82 101.465 44.2 102.165 44.94C102.865 45.68 103.225 46.64 103.225 47.78C103.225 48.92 102.865 49.88 102.165 50.62C101.465 51.36 100.605 51.74 99.5455 51.74C98.4855 51.74 97.6055 51.36 96.9055 50.62ZM104.825 52.94C106.225 51.52 106.925 49.8 106.925 47.78C106.925 45.76 106.225 44.04 104.825 42.62C103.425 41.2 101.665 40.5 99.5455 40.5C97.4255 40.5 95.6655 41.2 94.2655 42.62C92.8655 44.04 92.1655 45.76 92.1655 47.78C92.1655 49.8 92.8655 51.52 94.2655 52.94C95.6655 54.36 97.4255 55.06 99.5455 55.06C101.665 55.06 103.425 54.36 104.825 52.94Z" fill="white"/>
<path d="M114.108 55.06C115.788 55.06 117.168 54.66 118.228 53.84C119.288 53.02 119.828 51.94 119.828 50.56C119.828 49.36 119.448 48.42 118.688 47.76C117.928 47.1 116.868 46.54 115.528 46.1C114.948 45.92 114.028 45.68 113.608 45.54L112.968 45.32C112.548 45.14 112.388 44.94 112.388 44.68C112.388 44.06 113.008 43.76 114.228 43.76C115.028 43.76 115.848 43.9 116.708 44.16C117.568 44.42 118.308 44.74 118.928 45.12V41.66C117.468 40.88 115.888 40.5 114.188 40.5C110.828 40.5 108.688 42 108.688 44.7C108.688 45.52 108.928 46.26 109.188 46.76C109.488 47.26 110.148 47.74 110.548 48.04C110.768 48.18 111.068 48.32 111.468 48.48L112.388 48.84L113.408 49.14L114.668 49.52C114.908 49.6 115.408 49.74 115.568 49.88C115.888 50.1 116.108 50.28 116.108 50.7C116.108 51.44 115.388 51.8 113.968 51.8C113.068 51.8 112.108 51.62 111.088 51.24C110.068 50.86 109.268 50.42 108.688 49.88V53.56C110.148 54.56 111.948 55.06 114.108 55.06Z" fill="white"/>
<path d="M128.512 54.78V43.94H132.732V40.78H120.712V43.94H124.912V54.78H128.512Z" fill="white"/>
<defs>
<linearGradient id="paint0_linear_182_1370" x1="62" y1="29.18" x2="128.668" y2="29.18" gradientUnits="userSpaceOnUse">
<stop stop-color="#7DE310"/>
<stop offset="1" stop-color="#0EEB81"/>
</linearGradient>
<linearGradient id="paint1_linear_182_1370" x1="62" y1="29.18" x2="128.668" y2="29.18" gradientUnits="userSpaceOnUse">
<stop stop-color="#7DE310"/>
<stop offset="1" stop-color="#0EEB81"/>
</linearGradient>
<linearGradient id="paint2_linear_182_1370" x1="62" y1="29.18" x2="128.668" y2="29.18" gradientUnits="userSpaceOnUse">
<stop stop-color="#7DE310"/>
<stop offset="1" stop-color="#0EEB81"/>
</linearGradient>
<linearGradient id="paint3_linear_182_1370" x1="62" y1="29.18" x2="128.668" y2="29.18" gradientUnits="userSpaceOnUse">
<stop stop-color="#7DE310"/>
<stop offset="1" stop-color="#0EEB81"/>
</linearGradient>
<linearGradient id="paint4_linear_182_1370" x1="62" y1="29.18" x2="128.668" y2="29.18" gradientUnits="userSpaceOnUse">
<stop stop-color="#7DE310"/>
<stop offset="1" stop-color="#0EEB81"/>
</linearGradient>
<linearGradient id="paint5_linear_182_1370" x1="12.0007" y1="33.3981" x2="35.9993" y2="33.3981" gradientUnits="userSpaceOnUse">
<stop stop-color="#7DE310"/>
<stop offset="1" stop-color="#0EEB81"/>
</linearGradient>
<linearGradient id="paint6_linear_182_1370" x1="12.0007" y1="33.3981" x2="35.9993" y2="33.3981" gradientUnits="userSpaceOnUse">
<stop stop-color="#7DE310"/>
<stop offset="1" stop-color="#0EEB81"/>
</linearGradient>
<linearGradient id="paint7_linear_182_1370" x1="12.0007" y1="33.3981" x2="35.9993" y2="33.3981" gradientUnits="userSpaceOnUse">
<stop stop-color="#7DE310"/>
<stop offset="1" stop-color="#0EEB81"/>
</linearGradient>
</defs>
</svg>
