<svg width="206" height="20" viewBox="0 0 206 20" fill="none" xmlns="http://www.w3.org/2000/svg">
<g clip-path="url(#clip0_200_2084)">
<path d="M15.7857 6.7262L21.849 6.7262L21.849 7.87691L19.4616 7.87691L19.4616 14.3637L18.153 14.3637L18.153 7.87691L15.7757 7.87691L15.7857 6.7262ZM21.5893 8.83414L22.708 8.83414L22.708 9.90338L22.728 9.90338C22.768 9.75063 22.8379 9.60807 22.9378 9.4655C23.0377 9.32294 23.1575 9.19055 23.3074 9.07854C23.4472 8.95634 23.607 8.86469 23.7868 8.7934C23.9567 8.72212 24.1365 8.68139 24.3163 8.68139C24.4561 8.68139 24.556 8.69157 24.6059 8.69157C24.6559 8.70175 24.7158 8.71194 24.7658 8.71194L24.7658 9.88302C24.6859 9.86265 24.596 9.85247 24.5061 9.84228C24.4162 9.8321 24.3362 9.82192 24.2463 9.82192C24.0466 9.82192 23.8568 9.86265 23.677 9.94411C23.4972 10.0256 23.3473 10.1478 23.2075 10.3005C23.0776 10.4635 22.9677 10.6569 22.8878 10.8912C22.8079 11.1254 22.768 11.4003 22.768 11.7058L22.768 14.3331L21.5693 14.3331L21.5893 8.83414ZM30.2597 14.3637L29.081 14.3637L29.081 13.5897L29.061 13.5897C28.9112 13.8749 28.6914 14.0887 28.4018 14.2618C28.1121 14.4349 27.8124 14.5164 27.5127 14.5164C26.8035 14.5164 26.2841 14.3433 25.9645 13.9767C25.6448 13.6203 25.485 13.0704 25.485 12.3474L25.485 8.83414L26.6837 8.83414L26.6837 12.2252C26.6837 12.714 26.7736 13.0602 26.9634 13.2537C27.1432 13.4574 27.4029 13.5592 27.7325 13.5592C27.9822 13.5592 28.192 13.5185 28.3618 13.437C28.5316 13.3555 28.6715 13.2537 28.7714 13.1213C28.8812 12.9889 28.9512 12.826 29.0011 12.6427C29.0511 12.4594 29.071 12.2557 29.071 12.0419L29.071 8.83414L30.2697 8.83414L30.2697 14.3637L30.2597 14.3637ZM32.2975 12.5918C32.3374 12.9482 32.4673 13.1926 32.697 13.3453C32.9268 13.4879 33.2065 13.5592 33.5261 13.5592C33.636 13.5592 33.7659 13.549 33.9057 13.5286C34.0456 13.5083 34.1854 13.4777 34.3053 13.4268C34.4351 13.3759 34.535 13.3046 34.6149 13.2028C34.6948 13.1009 34.7348 12.9787 34.7248 12.826C34.7148 12.6732 34.6649 12.5409 34.555 12.439C34.4451 12.3372 34.3153 12.2659 34.1554 12.1946C33.9956 12.1335 33.8058 12.0826 33.596 12.0419C33.3863 12.0011 33.1765 11.9502 32.9568 11.8993C32.737 11.8484 32.5172 11.7873 32.3075 11.716C32.0977 11.6447 31.9179 11.5531 31.7481 11.4207C31.5883 11.2985 31.4484 11.1457 31.3585 10.9523C31.2586 10.7588 31.2087 10.5347 31.2087 10.2496C31.2087 9.94412 31.2786 9.69972 31.4284 9.49605C31.5683 9.29239 31.7581 9.12945 31.9778 9.00725C32.1976 8.88506 32.4473 8.7934 32.717 8.74249C32.9867 8.69157 33.2464 8.6712 33.4862 8.6712C33.7659 8.6712 34.0356 8.70176 34.2853 8.76286C34.535 8.82396 34.7748 8.91561 34.9745 9.05817C35.1843 9.19055 35.3541 9.37385 35.484 9.5877C35.6238 9.80155 35.7037 10.0663 35.7437 10.3718L34.4951 10.3718C34.4351 10.0765 34.3053 9.88302 34.1055 9.78119C33.8957 9.67935 33.666 9.62844 33.3963 9.62844C33.3164 9.62844 33.2065 9.63862 33.0966 9.6488C32.9767 9.66917 32.8768 9.68954 32.767 9.73027C32.6671 9.771 32.5772 9.8321 32.5072 9.90338C32.4373 9.97467 32.3974 10.0765 32.3974 10.1987C32.3974 10.3514 32.4473 10.4635 32.5472 10.5551C32.6471 10.6468 32.777 10.718 32.9468 10.7893C33.1066 10.8504 33.2964 10.9013 33.5061 10.9421C33.7159 10.9828 33.9357 11.0337 34.1554 11.0846C34.3752 11.1356 34.585 11.1967 34.7947 11.2679C35.0045 11.3392 35.1943 11.4309 35.3541 11.5633C35.5139 11.6855 35.6538 11.8382 35.7537 12.0215C35.8536 12.2048 35.9035 12.439 35.9035 12.7038C35.9035 13.0297 35.8336 13.3046 35.6838 13.5388C35.5339 13.7629 35.3441 13.9563 35.1144 14.0989C34.8846 14.2415 34.6149 14.3433 34.3352 14.4146C34.0456 14.4757 33.7659 14.5164 33.4862 14.5164C33.1465 14.5164 32.8269 14.4757 32.5372 14.3942C32.2475 14.3127 31.9878 14.1905 31.778 14.0378C31.5683 13.8749 31.3985 13.6814 31.2786 13.437C31.1587 13.2028 31.0888 12.9176 31.0788 12.5816L32.2875 12.5816L32.2875 12.5918L32.2975 12.5918ZM36.2431 8.83414L37.1521 8.83414L37.1521 7.16408L38.3508 7.16408L38.3508 8.82395L39.4296 8.82395L39.4296 9.73027L38.3508 9.73027L38.3508 12.6834C38.3508 12.8158 38.3608 12.9176 38.3708 13.0195C38.3808 13.1111 38.4108 13.1926 38.4407 13.2537C38.4807 13.3148 38.5406 13.3657 38.6105 13.3963C38.6904 13.4268 38.7903 13.4472 38.9302 13.4472C39.0101 13.4472 39.1 13.4472 39.1799 13.437C39.2598 13.4268 39.3497 13.4166 39.4296 13.3963L39.4296 14.3433C39.2998 14.3637 39.1699 14.3738 39.0401 14.384C38.9102 14.4044 38.7903 14.4044 38.6505 14.4044C38.3308 14.4044 38.0811 14.3739 37.8913 14.3128C37.7015 14.2517 37.5517 14.16 37.4418 14.048C37.3319 13.9258 37.262 13.7832 37.2221 13.6101C37.1821 13.437 37.1621 13.2231 37.1521 12.9991L37.1521 9.74045L36.2431 9.74045L36.2431 8.81377L36.2431 8.83414ZM40.2687 8.83414L41.3975 8.83414L41.3975 9.5877L41.4174 9.5877C41.5873 9.26184 41.817 9.0378 42.1167 8.89524C42.4163 8.75267 42.736 8.68139 43.0956 8.68139C43.5251 8.68139 43.8947 8.75267 44.2144 8.91561C44.534 9.06836 44.7937 9.27202 45.0035 9.54697C45.2133 9.81173 45.3731 10.1274 45.473 10.4838C45.5729 10.8402 45.6328 11.2272 45.6328 11.6244C45.6328 12.0011 45.5829 12.3576 45.493 12.7038C45.3931 13.05 45.2532 13.3657 45.0634 13.6305C44.8736 13.8952 44.6339 14.1091 44.3342 14.272C44.0346 14.4349 43.6949 14.5164 43.2954 14.5164C43.1256 14.5164 42.9458 14.4961 42.7759 14.4655C42.6061 14.435 42.4363 14.384 42.2765 14.3128C42.1167 14.2415 41.9668 14.1498 41.837 14.0378C41.6971 13.9258 41.5873 13.7934 41.4974 13.6508L41.4774 13.6508L41.4774 16.4105L40.2787 16.4105L40.2787 8.83414L40.2687 8.83414ZM44.4541 11.604C44.4541 11.3596 44.4241 11.1152 44.3542 10.881C44.2943 10.6468 44.1944 10.4431 44.0645 10.2598C43.9347 10.0765 43.7748 9.93394 43.595 9.82192C43.4053 9.7099 43.1855 9.65899 42.9458 9.65899C42.4463 9.65899 42.0667 9.8321 41.807 10.1885C41.5573 10.5449 41.4274 11.0235 41.4274 11.6142C41.4274 11.8993 41.4574 12.1539 41.5273 12.3881C41.5972 12.6223 41.6871 12.826 41.827 12.9991C41.9568 13.1722 42.1167 13.3046 42.3065 13.4064C42.4963 13.5083 42.706 13.5592 42.9557 13.5592C43.2354 13.5592 43.4552 13.4981 43.645 13.3861C43.8348 13.2741 43.9846 13.1213 44.1145 12.9482C44.2343 12.7649 44.3242 12.5612 44.3742 12.327C44.4241 12.0826 44.4541 11.8484 44.4541 11.604ZM46.5618 6.7262L47.7605 6.7262L47.7605 7.87691L46.5618 7.87691L46.5618 6.7262ZM46.5618 8.83414L47.7605 8.83414L47.7605 14.3637L46.5618 14.3637L46.5618 8.83414ZM48.8293 6.7262L50.028 6.7262L50.028 14.3637L48.8293 14.3637L48.8293 6.7262ZM53.6839 14.5164C53.2544 14.5164 52.8648 14.4451 52.5252 14.2924C52.1856 14.1396 51.9059 13.9462 51.6662 13.6916C51.4364 13.437 51.2566 13.1213 51.1367 12.7649C51.0169 12.4085 50.947 12.0113 50.947 11.5938C50.947 11.1763 51.0069 10.7893 51.1367 10.4329C51.2566 10.0765 51.4364 9.771 51.6662 9.50624C51.8959 9.25165 52.1856 9.04799 52.5252 8.90542C52.8648 8.76286 53.2544 8.68139 53.6839 8.68139C54.1135 8.68139 54.503 8.75267 54.8427 8.90542C55.1823 9.04799 55.462 9.25165 55.7017 9.50624C55.9315 9.76082 56.1113 10.0765 56.2311 10.4329C56.351 10.7893 56.4209 11.1763 56.4209 11.5938C56.4209 12.0215 56.361 12.4085 56.2311 12.7649C56.1013 13.1213 55.9315 13.4268 55.7017 13.6916C55.472 13.9462 55.1823 14.1498 54.8427 14.2924C54.503 14.435 54.1235 14.5164 53.6839 14.5164ZM53.6839 13.549C53.9437 13.549 54.1834 13.4879 54.3732 13.3759C54.573 13.2639 54.7228 13.1111 54.8527 12.9278C54.9825 12.7445 55.0724 12.5307 55.1323 12.3066C55.1923 12.0724 55.2222 11.8382 55.2222 11.5938C55.2222 11.3596 55.1923 11.1254 55.1323 10.8912C55.0724 10.657 54.9825 10.4533 54.8527 10.27C54.7228 10.0867 54.563 9.94412 54.3732 9.8321C54.1734 9.72009 53.9437 9.65899 53.6839 9.65899C53.4242 9.65899 53.1845 9.72009 52.9947 9.8321C52.7949 9.94412 52.6451 10.0969 52.5152 10.27C52.3854 10.4533 52.2955 10.6569 52.2355 10.8912C52.1756 11.1254 52.1456 11.3596 52.1456 11.5938C52.1456 11.8382 52.1756 12.0724 52.2355 12.3066C52.2955 12.5409 52.3854 12.7445 52.5152 12.9278C52.6451 13.1111 52.8049 13.2639 52.9947 13.3759C53.1945 13.4981 53.4242 13.549 53.6839 13.549ZM56.7805 8.83414L57.6895 8.83414L57.6895 7.16408L58.8882 7.16408L58.8882 8.82396L59.967 8.82396L59.967 9.73027L58.8882 9.73027L58.8882 12.6834C58.8882 12.8158 58.8982 12.9176 58.9082 13.0195C58.9182 13.1111 58.9481 13.1926 58.9781 13.2537C59.0181 13.3148 59.078 13.3657 59.1479 13.3963C59.2278 13.4268 59.3277 13.4472 59.4676 13.4472C59.5475 13.4472 59.6374 13.4472 59.7173 13.437C59.7972 13.4268 59.8871 13.4166 59.967 13.3963L59.967 14.3433C59.8372 14.3637 59.7073 14.3739 59.5774 14.384C59.4476 14.4044 59.3277 14.4044 59.1879 14.4044C58.8682 14.4044 58.6185 14.3739 58.4287 14.3128C58.2389 14.2517 58.0891 14.16 57.9792 14.048C57.8693 13.9258 57.7994 13.7832 57.7595 13.6101C57.7195 13.437 57.6995 13.2231 57.6895 12.9991L57.6895 9.74045L56.7805 9.74045L56.7805 8.81377L56.7805 8.83414Z" fill="white"/>
<path d="M14.3872 6.7262L8.90323 6.7262L7.21509 1.41052L5.51696 6.7262L0.032989 6.71602L4.46811 10.0052L2.76998 15.3209L7.2051 12.0317L11.6402 15.3209L9.95208 10.0052L14.3872 6.7262Z" fill="#00B67A"/>
<path d="M10.3317 11.2069L9.95207 10.0052L7.21509 12.0317L10.3317 11.2069Z" fill="#005128"/>
</g>
<g clip-path="url(#clip1_200_2084)">
<path d="M99.9827 8.62324C99.9414 8.49595 99.8314 8.40318 99.699 8.38397L95.9789 7.84338L94.3152 4.47245C94.256 4.35245 94.1338 4.27649 94 4.27649C93.8661 4.27649 93.7439 4.35245 93.6847 4.47245L92.0209 7.84338L88.3009 8.38397C88.1685 8.40318 88.0585 8.49595 88.0172 8.62321C87.9758 8.7505 88.0103 8.89021 88.1061 8.98361L90.7979 11.6075L90.1625 15.3126C90.1399 15.4445 90.1941 15.5777 90.3024 15.6564C90.3636 15.7009 90.4362 15.7236 90.5091 15.7236C90.565 15.7236 90.6212 15.7102 90.6726 15.6832L93.9999 13.9338L97.3271 15.6831C97.4456 15.7454 97.5891 15.7351 97.6974 15.6564C97.8056 15.5777 97.8599 15.4444 97.8373 15.3125L97.2017 11.6075L99.8938 8.98359C99.9896 8.89021 100.024 8.7505 99.9827 8.62324Z" fill="#00B67A"/>
</g>
<g clip-path="url(#clip2_200_2084)">
<path d="M119.983 8.62324C119.941 8.49595 119.831 8.40318 119.699 8.38397L115.979 7.84338L114.315 4.47245C114.256 4.35245 114.134 4.27649 114 4.27649C113.866 4.27649 113.744 4.35245 113.685 4.47245L112.021 7.84338L108.301 8.38397C108.169 8.40318 108.059 8.49595 108.017 8.62321C107.976 8.7505 108.01 8.89021 108.106 8.98361L110.798 11.6075L110.163 15.3126C110.14 15.4445 110.194 15.5777 110.302 15.6564C110.364 15.7009 110.436 15.7236 110.509 15.7236C110.565 15.7236 110.621 15.7102 110.673 15.6832L114 13.9338L117.327 15.6831C117.446 15.7454 117.589 15.7351 117.697 15.6564C117.806 15.5777 117.86 15.4444 117.837 15.3125L117.202 11.6075L119.894 8.98359C119.99 8.89021 120.024 8.7505 119.983 8.62324Z" fill="#00B67A"/>
</g>
<g clip-path="url(#clip3_200_2084)">
<path d="M139.983 8.62324C139.941 8.49595 139.831 8.40318 139.699 8.38397L135.979 7.84338L134.315 4.47245C134.256 4.35245 134.134 4.27649 134 4.27649C133.866 4.27649 133.744 4.35245 133.685 4.47245L132.021 7.84338L128.301 8.38397C128.169 8.40318 128.059 8.49595 128.017 8.62321C127.976 8.7505 128.01 8.89021 128.106 8.98361L130.798 11.6075L130.163 15.3126C130.14 15.4445 130.194 15.5777 130.302 15.6564C130.364 15.7009 130.436 15.7236 130.509 15.7236C130.565 15.7236 130.621 15.7102 130.673 15.6832L134 13.9338L137.327 15.6831C137.446 15.7454 137.589 15.7351 137.697 15.6564C137.806 15.5777 137.86 15.4444 137.837 15.3125L137.202 11.6075L139.894 8.98359C139.99 8.89021 140.024 8.7505 139.983 8.62324Z" fill="#00B67A"/>
</g>
<g clip-path="url(#clip4_200_2084)">
<path d="M159.983 8.62324C159.941 8.49595 159.831 8.40318 159.699 8.38397L155.979 7.84338L154.315 4.47245C154.256 4.35245 154.134 4.27649 154 4.27649C153.866 4.27649 153.744 4.35245 153.685 4.47245L152.021 7.84338L148.301 8.38397C148.169 8.40318 148.059 8.49595 148.017 8.62321C147.976 8.7505 148.01 8.89021 148.106 8.98361L150.798 11.6075L150.163 15.3126C150.14 15.4445 150.194 15.5777 150.302 15.6564C150.364 15.7009 150.436 15.7236 150.509 15.7236C150.565 15.7236 150.621 15.7102 150.673 15.6832L154 13.9338L157.327 15.6831C157.446 15.7454 157.589 15.7351 157.697 15.6564C157.806 15.5777 157.86 15.4444 157.837 15.3125L157.202 11.6075L159.894 8.98359C159.99 8.89021 160.024 8.7505 159.983 8.62324Z" fill="#00B67A"/>
</g>
<g clip-path="url(#clip5_200_2084)">
<path d="M179.983 8.62324C179.941 8.49595 179.831 8.40318 179.699 8.38397L175.979 7.84338L174.315 4.47245C174.256 4.35245 174.134 4.27649 174 4.27649C173.866 4.27649 173.744 4.35245 173.685 4.47245L172.021 7.84338L168.301 8.38397C168.169 8.40318 168.059 8.49595 168.017 8.62321C167.976 8.7505 168.01 8.89021 168.106 8.98361L170.798 11.6075L170.163 15.3126C170.14 15.4445 170.194 15.5777 170.302 15.6564C170.364 15.7009 170.436 15.7236 170.509 15.7236C170.565 15.7236 170.621 15.7102 170.673 15.6832L174 13.9338L177.327 15.6831C177.446 15.7454 177.589 15.7351 177.697 15.6564C177.806 15.5777 177.86 15.4444 177.837 15.3125L177.202 11.6075L179.894 8.98359C179.99 8.89021 180.024 8.7505 179.983 8.62324Z" fill="#69746F"/>
</g>
<path d="M194 13V10.804H195.308V9.676H194V4.6H192.704L188.348 9.796V10.804H192.704V13H194ZM192.704 6.292V9.676H189.848L192.704 6.292ZM197.047 13.096C197.515 13.096 197.887 12.724 197.887 12.244C197.887 11.776 197.491 11.404 197.047 11.404C196.567 11.404 196.195 11.776 196.195 12.244C196.195 12.724 196.567 13.096 197.047 13.096ZM201.973 4.444C201.133 4.444 200.425 4.72 199.861 5.26C199.297 5.8 199.021 6.496 199.021 7.348C199.021 8.152 199.273 8.8 199.789 9.292C200.305 9.784 200.953 10.024 201.721 10.024C202.681 10.024 203.401 9.712 203.893 9.076C203.857 9.88 203.629 10.552 203.197 11.116C202.777 11.68 202.153 11.956 201.349 11.956C200.737 11.956 200.161 11.776 199.645 11.428V12.628C200.173 12.976 200.785 13.156 201.493 13.156C202.669 13.156 203.593 12.7 204.253 11.788C204.913 10.864 205.249 9.736 205.249 8.38C205.249 7.144 204.961 6.184 204.373 5.488C203.797 4.792 202.993 4.444 201.973 4.444ZM202.057 5.608C203.161 5.608 203.833 6.376 203.929 7.624C203.821 7.996 203.581 8.32 203.221 8.572C202.873 8.824 202.489 8.956 202.069 8.956C201.577 8.956 201.157 8.812 200.821 8.512C200.497 8.212 200.329 7.816 200.329 7.324C200.329 6.832 200.497 6.424 200.821 6.1C201.145 5.776 201.565 5.608 202.057 5.608Z" fill="white"/>
<defs>
<clipPath id="clip0_200_2084">
<rect width="60" height="15" fill="white" transform="translate(60 16.4105) rotate(-180)"/>
</clipPath>
<clipPath id="clip1_200_2084">
<rect width="12" height="12" fill="white" transform="translate(88 4)"/>
</clipPath>
<clipPath id="clip2_200_2084">
<rect width="12" height="12" fill="white" transform="translate(108 4)"/>
</clipPath>
<clipPath id="clip3_200_2084">
<rect width="12" height="12" fill="white" transform="translate(128 4)"/>
</clipPath>
<clipPath id="clip4_200_2084">
<rect width="12" height="12" fill="white" transform="translate(148 4)"/>
</clipPath>
<clipPath id="clip5_200_2084">
<rect width="12" height="12" fill="white" transform="translate(168 4)"/>
</clipPath>
</defs>
</svg>
