<svg width="54" height="20" viewBox="0 0 54 20" fill="none" xmlns="http://www.w3.org/2000/svg">
<g clip-path="url(#clip0_200_2970)">
<path d="M19.9568 6.24585H17.0055C16.9078 6.24579 16.8132 6.28062 16.7389 6.34408C16.6647 6.40754 16.6155 6.49544 16.6002 6.59195L15.4066 14.16C15.4011 14.1951 15.4033 14.231 15.413 14.2652C15.4227 14.2994 15.4397 14.3311 15.4628 14.3581C15.486 14.3851 15.5147 14.4067 15.547 14.4216C15.5793 14.4364 15.6144 14.444 15.65 14.444H17.059C17.1567 14.444 17.2513 14.4091 17.3256 14.3456C17.3999 14.282 17.4491 14.194 17.4642 14.0974L17.7861 12.0562C17.8013 11.9597 17.8503 11.8718 17.9246 11.8082C17.9988 11.7447 18.0932 11.7097 18.1909 11.7097H19.1252C21.0694 11.7097 22.1914 10.7689 22.4844 8.90462C22.6165 8.08899 22.49 7.44814 22.1081 6.99933C21.6886 6.50651 20.9446 6.24585 19.9568 6.24585ZM20.2973 9.00992C20.1359 10.0689 19.3268 10.0689 18.5444 10.0689H18.099L18.4114 8.09115C18.4206 8.03329 18.4501 7.98059 18.4946 7.94254C18.5392 7.90449 18.5958 7.88358 18.6544 7.88358H18.8585C19.3915 7.88358 19.8943 7.88358 20.154 8.18739C20.309 8.36864 20.3564 8.63792 20.2973 9.00992ZM28.779 8.97583H27.3657C27.3071 8.97583 27.2504 8.99674 27.2059 9.03479C27.1613 9.07284 27.1318 9.12554 27.1227 9.1834L27.0601 9.5787L26.9613 9.43543C26.6553 8.99136 25.973 8.84291 25.2921 8.84291C23.7303 8.84291 22.3964 10.0258 22.1366 11.6851C22.0015 12.5128 22.1935 13.3043 22.6631 13.8562C23.0938 14.3637 23.71 14.5752 24.4432 14.5752C25.7016 14.5752 26.3994 13.766 26.3994 13.766L26.3364 14.1587C26.3308 14.1938 26.3329 14.2297 26.3425 14.264C26.3521 14.2982 26.369 14.33 26.392 14.357C26.4151 14.3841 26.4437 14.4059 26.476 14.4208C26.5083 14.4357 26.5434 14.4435 26.5789 14.4435H27.852C27.9498 14.4436 28.0443 14.4087 28.1187 14.3452C28.193 14.2816 28.2421 14.1936 28.2572 14.097L29.0211 9.25979C29.0267 9.22475 29.0246 9.18892 29.0151 9.15475C29.0055 9.12059 28.9886 9.08892 28.9656 9.06192C28.9426 9.03492 28.914 9.01323 28.8817 8.99837C28.8495 8.98351 28.8145 8.97582 28.779 8.97583ZM26.809 11.7265C26.6726 12.5339 26.0317 13.076 25.2144 13.076C24.804 13.076 24.476 12.9443 24.2654 12.6949C24.0565 12.4472 23.9771 12.0946 24.0436 11.7019C24.1709 10.9014 24.8225 10.3417 25.6274 10.3417C26.0287 10.3417 26.355 10.475 26.5699 10.7266C26.7852 10.9808 26.8707 11.3355 26.809 11.7265ZM36.3061 8.97583H34.8858C34.8188 8.97593 34.7529 8.99238 34.6937 9.02374C34.6345 9.0551 34.5839 9.10042 34.5462 9.15578L32.5874 12.0411L31.7571 9.26842C31.7316 9.18385 31.6796 9.10974 31.6087 9.05704C31.5378 9.00435 31.4518 8.97587 31.3635 8.97583H29.9679C29.9287 8.97572 29.8901 8.98498 29.8552 9.00282C29.8203 9.02066 29.7902 9.04658 29.7674 9.07841C29.7445 9.11024 29.7296 9.14706 29.7239 9.18582C29.7182 9.22457 29.7218 9.26414 29.7344 9.30121L31.2988 13.892L29.8281 15.9682C29.8019 16.005 29.7864 16.0483 29.7833 16.0934C29.7801 16.1384 29.7894 16.1834 29.8101 16.2235C29.8308 16.2636 29.8622 16.2973 29.9008 16.3207C29.9393 16.3442 29.9836 16.3566 30.0287 16.3566H31.4472C31.5135 16.3567 31.5787 16.3407 31.6374 16.3101C31.6961 16.2794 31.7465 16.2349 31.7843 16.1805L36.508 9.36206C36.5336 9.32517 36.5486 9.28198 36.5514 9.23716C36.5542 9.19235 36.5447 9.14762 36.5239 9.10783C36.5031 9.06803 36.4718 9.0347 36.4334 9.01143C36.395 8.98816 36.351 8.97585 36.3061 8.97583Z" fill="white"/>
<path d="M41.0082 6.24585H38.0564C37.9588 6.2459 37.8644 6.28078 37.7902 6.34422C37.716 6.40767 37.6669 6.49552 37.6516 6.59196L36.458 14.16C36.4524 14.1951 36.4545 14.2309 36.4642 14.2651C36.4738 14.2993 36.4907 14.3309 36.5138 14.3579C36.5368 14.3849 36.5655 14.4066 36.5977 14.4214C36.6299 14.4363 36.665 14.444 36.7005 14.444H38.2152C38.2836 14.4439 38.3496 14.4194 38.4015 14.3749C38.4534 14.3305 38.4878 14.269 38.4983 14.2015L38.8371 12.0562C38.8522 11.9597 38.9013 11.8718 38.9755 11.8082C39.0497 11.7447 39.1442 11.7097 39.2419 11.7097H40.1758C42.1203 11.7097 43.2419 10.7689 43.5354 8.90463C43.6679 8.089 43.5406 7.44815 43.1586 6.99934C42.7396 6.50651 41.996 6.24585 41.0082 6.24585ZM41.3487 9.00992C41.1878 10.0689 40.3786 10.0689 39.5958 10.0689H39.1508L39.4637 8.09116C39.4727 8.03329 39.5021 7.98055 39.5466 7.94247C39.591 7.9044 39.6477 7.88351 39.7062 7.88358H39.9104C40.4429 7.88358 40.9461 7.88358 41.2059 8.18739C41.3608 8.36864 41.4078 8.63793 41.3487 9.00992ZM49.8299 8.97583H48.4175C48.3589 8.97567 48.3022 8.99653 48.2577 9.03462C48.2132 9.07271 48.1838 9.1255 48.175 9.18341L48.1124 9.5787L48.0131 9.43543C47.7072 8.99137 47.0253 8.84291 46.3443 8.84291C44.7826 8.84291 43.4491 10.0258 43.1893 11.6851C43.0546 12.5128 43.2458 13.3043 43.7153 13.8562C44.1469 14.3637 44.7623 14.5752 45.4955 14.5752C46.7539 14.5752 47.4517 13.766 47.4517 13.766L47.3887 14.1587C47.3831 14.1939 47.3851 14.2299 47.3948 14.2642C47.4044 14.2985 47.4214 14.3303 47.4446 14.3574C47.4677 14.3845 47.4965 14.4062 47.5288 14.4211C47.5612 14.436 47.5964 14.4436 47.6321 14.4436H48.9047C49.0024 14.4435 49.0969 14.4086 49.1711 14.345C49.2453 14.2815 49.2944 14.1935 49.3095 14.097L50.0738 9.25979C50.0792 9.22465 50.0769 9.18875 50.0672 9.15456C50.0574 9.12037 50.0404 9.08869 50.0172 9.06172C49.994 9.03474 49.9653 9.01309 49.933 8.99827C49.9007 8.98344 49.8655 8.97579 49.8299 8.97583ZM47.8599 11.7265C47.7244 12.5339 47.0827 13.076 46.2654 13.076C45.8558 13.076 45.527 12.9444 45.3164 12.6949C45.1075 12.4472 45.029 12.0946 45.0946 11.7019C45.2227 10.9014 45.8735 10.3417 46.6783 10.3417C47.0797 10.3417 47.4059 10.475 47.6209 10.7266C47.8371 10.9808 47.9225 11.3355 47.8599 11.7265ZM51.4962 6.45343L50.2848 14.16C50.2793 14.1951 50.2814 14.2309 50.291 14.2651C50.3006 14.2993 50.3176 14.3309 50.3406 14.3579C50.3637 14.3849 50.3923 14.4066 50.4245 14.4214C50.4568 14.4363 50.4918 14.444 50.5273 14.444H51.7452C51.9476 14.444 52.1193 14.2973 52.1504 14.0975L53.3449 6.52981C53.3505 6.49473 53.3483 6.45887 53.3387 6.42469C53.3291 6.3905 53.3122 6.35881 53.2891 6.33179C53.2661 6.30477 53.2374 6.28306 53.2052 6.26815C53.173 6.25324 53.1379 6.24549 53.1024 6.24542H51.7387C51.6801 6.24563 51.6236 6.26668 51.5791 6.30479C51.5347 6.3429 51.5053 6.3956 51.4962 6.45343Z" fill="white"/>
<path d="M9.96088 6.64201C9.9488 6.71926 9.93499 6.79823 9.91945 6.87937C9.38562 9.62013 7.55931 10.5669 5.22679 10.5669H4.03917C3.75391 10.5669 3.51354 10.7741 3.46909 11.0555L2.86104 14.9118L2.68885 16.0049C2.68199 16.0483 2.68461 16.0926 2.69653 16.1348C2.70844 16.1771 2.72938 16.2163 2.75788 16.2496C2.78638 16.283 2.82179 16.3098 2.86165 16.3282C2.90151 16.3466 2.94488 16.3562 2.98878 16.3562H5.09517C5.3446 16.3562 5.55649 16.1749 5.59576 15.9289L5.61648 15.8219L6.01307 13.3051L6.03853 13.167C6.07737 12.9202 6.28969 12.7389 6.53913 12.7389H6.85416C8.89495 12.7389 10.4925 11.9104 10.9595 9.51268C11.1545 8.51105 11.0536 7.67471 10.5374 7.08651C10.3738 6.90455 10.1785 6.75393 9.96088 6.64201Z" fill="white"/>
<path d="M4.16346 6.65582C4.18184 6.53648 4.24243 6.42768 4.33421 6.34921C4.42599 6.27073 4.54287 6.22778 4.66362 6.22816H7.83637C8.21225 6.22816 8.5631 6.25276 8.88331 6.30454C9.09999 6.3386 9.31368 6.38953 9.52243 6.45688C9.67995 6.5091 9.82624 6.57081 9.96132 6.64201C10.1201 5.62917 9.96002 4.93955 9.41239 4.3151C8.80865 3.62764 7.71899 3.33333 6.32465 3.33333H2.27673C1.9919 3.33333 1.74894 3.54047 1.70492 3.82227L0.0188639 14.5096C0.0110105 14.5592 0.0139985 14.6099 0.0276222 14.6583C0.041246 14.7066 0.0651822 14.7515 0.0977844 14.7897C0.130387 14.8279 0.170881 14.8586 0.216482 14.8797C0.262083 14.9008 0.311709 14.9117 0.361945 14.9118H2.86104L3.48852 10.9307L4.16346 6.65582Z" fill="white"/>
<path d="M4.87775 6.9403C4.69517 7.14641 4.69517 7.75509 4.33002 10.0223C5.42549 9.81622 5.67446 10.0855 7.13508 9.59078C8.96087 8.97244 9.07705 7.35252 9.07705 6.9403C8.42973 6.78571 5.06033 6.73418 4.87775 6.9403Z" fill="white"/>
</g>
<defs>
<clipPath id="clip0_200_2970">
<rect width="53.3333" height="20" fill="white" transform="translate(0.0145264)"/>
</clipPath>
</defs>
</svg>
