<svg width="20" height="20" viewBox="0 0 20 20" fill="none" xmlns="http://www.w3.org/2000/svg">
<g clip-path="url(#clip0_182_1387)">
<path d="M20.5128 3.63958C19.75 3.9742 18.9372 4.19599 18.0897 4.30368C18.9615 3.78317 19.6269 2.96522 19.9397 1.97932C19.1269 2.46394 18.2295 2.80625 17.2731 2.99727C16.5013 2.17548 15.4013 1.6665 14.2013 1.6665C11.8731 1.6665 9.99872 3.55625 9.99872 5.87291C9.99872 6.20625 10.0269 6.52676 10.0962 6.83189C6.6 6.66138 3.50641 4.98573 1.42821 2.43317C1.06538 3.06266 0.852564 3.78317 0.852564 4.55881C0.852564 6.01522 1.60256 7.30625 2.72051 8.05368C2.04487 8.04086 1.38205 7.84471 0.820513 7.53574C0.820513 7.54856 0.820513 7.56522 0.820513 7.58189C0.820513 9.62548 2.2782 11.3229 4.18974 11.7139C3.84744 11.8075 3.47436 11.8524 3.08718 11.8524C2.81795 11.8524 2.54615 11.837 2.29103 11.7806C2.8359 13.446 4.38205 14.6704 6.22051 14.7101C4.78974 15.8293 2.97308 16.5037 1.00641 16.5037C0.661539 16.5037 0.330769 16.4883 0 16.446C1.86282 17.6473 4.07051 18.3332 6.45128 18.3332C14.1897 18.3332 18.4205 11.9229 18.4205 6.3665C18.4205 6.18061 18.4141 6.00112 18.4051 5.82291C19.2397 5.23061 19.941 4.49086 20.5128 3.63958Z" fill="white"/>
</g>
<defs>
<clipPath id="clip0_182_1387">
<rect width="20" height="20" fill="white"/>
</clipPath>
</defs>
</svg>
