<svg width="206" height="20" viewBox="0 0 206 20" fill="none" xmlns="http://www.w3.org/2000/svg">
<path d="M20.5811 14.722L18.5361 12.0897C19.8491 11.7823 20.767 10.9252 20.767 9.50455V9.48028C20.767 8.7677 20.5065 8.13374 20.0663 7.69316C19.5039 7.13072 18.6231 6.79419 17.5242 6.79419H14.2801C13.9614 6.79419 13.6868 7.06608 13.6868 7.39986V15.139C13.6868 15.4729 13.9614 15.7448 14.2801 15.7448C14.6126 15.7448 14.8854 15.4721 14.8854 15.139V12.3147H17.2094L19.6158 15.4409C19.7479 15.6171 19.9263 15.7448 20.1614 15.7448C20.4648 15.7448 20.767 15.4701 20.767 15.1509C20.767 14.9889 20.6981 14.854 20.5811 14.722ZM19.556 9.51737L19.5561 9.54206H19.556C19.556 10.5958 18.6669 11.215 17.4372 11.215H14.8854V7.91864H17.4496C18.7714 7.91864 19.556 8.51128 19.556 9.51737Z" fill="white"/>
<path d="M22.5141 15.0772C22.5141 15.4106 22.7887 15.6826 23.1075 15.6826H28.5556C28.8646 15.6826 29.1115 15.4353 29.1115 15.1263C29.1115 14.8177 28.8647 14.5704 28.5556 14.5704H23.7128V11.7572H27.9366C28.2457 11.7572 28.4929 11.5103 28.4929 11.2013C28.4929 10.9077 28.2457 10.645 27.9366 10.645H23.7128V7.90677H28.4939C28.8023 7.90677 29.0501 7.65946 29.0501 7.35048C29.0501 7.0415 28.8023 6.79419 28.4939 6.79419H23.1075C22.7889 6.79419 22.5141 7.06608 22.5141 7.39996V15.0772Z" fill="white"/>
<path d="M34.1512 15.7818L34.2161 15.7816C34.5405 15.776 34.7426 15.5933 34.8708 15.3078L38.2284 7.55211C38.2583 7.47752 38.2735 7.40292 38.2735 7.31339C38.2735 7.00833 38.0156 6.7323 37.6801 6.7323C37.4142 6.7323 37.2023 6.93299 37.0985 7.13972C37.0973 7.14205 37.0963 7.14438 37.0952 7.14682L34.1887 14.1089L31.2937 7.17151C31.1905 6.92038 30.98 6.7323 30.6845 6.7323C30.3501 6.7323 30.0783 7.02231 30.0783 7.32525C30.0783 7.43111 30.0944 7.50634 30.1392 7.59641L33.4799 15.3054C33.5964 15.5958 33.8169 15.7818 34.1512 15.7818Z" fill="white"/>
<path d="M39.8595 7.33797V15.1389C39.8595 15.4727 40.1341 15.7446 40.4529 15.7446C40.7854 15.7446 41.0581 15.472 41.0581 15.1389V7.33797C41.0581 7.00483 40.7854 6.7323 40.4529 6.7323C40.1341 6.7323 39.8595 7.00409 39.8595 7.33797Z" fill="white"/>
<path d="M49.2459 6.7944L49.2315 6.79419H43.8448C43.5266 6.79419 43.2518 7.06608 43.2518 7.39996V15.0772C43.2518 15.4106 43.5264 15.6826 43.8448 15.6826C43.8446 15.6826 49.2932 15.6826 49.2932 15.6826C49.6018 15.6826 49.8491 15.4353 49.8491 15.1263C49.8491 14.8177 49.6018 14.5704 49.2932 14.5704H44.4504V11.7572H48.6738C48.9834 11.7572 49.2301 11.5103 49.2301 11.2013C49.2301 10.9077 48.9834 10.645 48.6738 10.645H44.4504V7.90677H49.2315C49.5399 7.90677 49.7877 7.65946 49.7877 7.35048C49.7877 7.04637 49.5475 6.80192 49.2459 6.7944Z" fill="white"/>
<path d="M59.865 15.794H59.9667C60.2556 15.7878 60.4632 15.5899 60.5649 15.2989C60.5644 15.2999 63.3385 7.59836 63.3385 7.59836C63.3388 7.5973 63.3391 7.59635 63.3395 7.59529C63.3672 7.51052 63.4068 7.41039 63.4068 7.32562C63.4068 7.02204 63.1198 6.73267 62.8011 6.73267C62.5158 6.73267 62.3162 6.92149 62.2257 7.19169C62.2261 7.19052 59.9312 13.7913 59.9312 13.7913L57.7671 7.1919C57.6774 6.92233 57.4789 6.73267 57.1799 6.73267V6.73362L57.1176 6.73267C56.8032 6.73267 56.6195 6.92233 56.5299 7.1919L54.3659 13.7911L52.0833 7.21479C51.9948 6.94957 51.7679 6.73267 51.4713 6.73267C51.1389 6.73267 50.8536 7.02067 50.8536 7.33802C50.8536 7.42416 50.8797 7.5102 50.9083 7.59582L53.6827 15.2991C53.7848 15.6041 53.9926 15.7882 54.2809 15.794H54.3826C54.671 15.7878 54.8793 15.5898 54.9803 15.2987L57.1179 8.94639L59.2673 15.2989C59.3689 15.5899 59.5771 15.7878 59.865 15.794Z" fill="white"/>
<path d="M69.6605 13.3186V13.3433C69.6605 14.1432 68.929 14.7066 67.8394 14.7066C66.7685 14.7066 65.9735 14.3821 65.1793 13.7092L65.1771 13.7072C65.0986 13.6305 64.96 13.567 64.8058 13.567C64.4856 13.567 64.2243 13.8251 64.2243 14.1604C64.2243 14.3592 64.318 14.527 64.4547 14.6208C65.44 15.4027 66.5139 15.8064 67.8023 15.8064C69.5928 15.8064 70.8715 14.79 70.8715 13.2444V13.2192C70.8715 11.8459 69.9638 11.0967 67.9617 10.6601C67.9616 10.6601 67.9615 10.66 67.9613 10.66C66.1425 10.2701 65.6959 9.86352 65.6959 9.08366V9.05897C65.6959 8.33081 66.379 7.77017 67.4304 7.77017C68.2121 7.77017 68.8974 7.98739 69.607 8.50437C69.6072 8.50458 69.6074 8.50469 69.6076 8.5049C69.7133 8.58077 69.8196 8.61213 69.9568 8.61213C70.2773 8.61213 70.5373 8.35274 70.5373 8.03115C70.5373 7.80493 70.4038 7.63783 70.2827 7.54681C70.2821 7.54638 70.2814 7.54585 70.2808 7.54543C69.4698 6.96254 68.6214 6.67041 67.4552 6.67041C65.7392 6.67041 64.4967 7.72662 64.4967 9.14585L64.6071 9.25626C64.607 9.25626 64.4967 9.1466 64.4967 9.1466V9.16959L64.6071 9.28053L64.4967 9.17022C64.4967 10.6451 65.4294 11.3311 67.494 11.7796C67.4942 11.7796 67.4945 11.7797 67.4947 11.7797C69.227 12.1454 69.6605 12.5524 69.6605 13.3186Z" fill="white"/>
<path d="M72.2362 14.5264L72.2257 14.5262C71.9929 14.5262 71.827 14.693 71.827 14.9179L71.8932 14.9841L71.827 14.9179V15.0565C71.827 15.281 71.9932 15.4552 72.2257 15.4552C72.45 15.4552 72.6173 15.2814 72.6173 15.0565C72.6173 15.0931 72.5876 15.1227 72.5511 15.1227C72.5511 15.1227 72.6173 15.1153 72.6173 15.0534V14.9179C72.6173 14.6961 72.4556 14.5314 72.2362 14.5264ZM71.899 15.1217C71.8954 15.1225 71.8932 15.1227 71.8932 15.1227C71.8952 15.1227 71.8972 15.1227 71.8992 15.1225L71.899 15.1217Z" fill="white"/>
<path d="M73.6492 12.0093V15.1188C73.6492 15.3085 73.796 15.4552 73.985 15.4552C74.1758 15.4552 74.3149 15.3089 74.3149 15.1188V12.0093C74.3149 11.8191 74.1681 11.6729 73.9785 11.6729C73.7972 11.6729 73.6492 11.828 73.6492 12.0093ZM73.6006 10.7418H73.6005C73.6005 10.9451 73.767 11.0919 73.9785 11.0919C74.1981 11.0919 74.363 10.9447 74.363 10.7418V10.6521C74.363 10.4405 74.1981 10.3015 73.9785 10.3015C73.767 10.3015 73.6005 10.4401 73.6005 10.6521L73.6006 10.7418Z" fill="white"/>
<path fill-rule="evenodd" clip-rule="evenodd" d="M79.066 13.5691L79.0661 13.5541C79.0661 12.5066 78.2487 11.6313 77.1372 11.6313C76.0185 11.6313 75.2007 12.521 75.2007 13.5678L75.2144 13.5815L75.2007 13.5682V13.5815C75.2007 14.6286 76.0114 15.5038 77.1231 15.5038C78.2416 15.5038 79.0654 14.6153 79.066 13.5691ZM78.3866 13.5815V13.5678C78.3866 12.8364 77.8414 12.2345 77.1231 12.2345C76.3854 12.2345 75.8802 12.8362 75.8802 13.5541V13.5678C75.8802 14.299 76.419 14.8932 77.1372 14.8932C77.8743 14.8932 78.3866 14.2993 78.3866 13.5815Z" fill="white"/>
<path fill-rule="evenodd" clip-rule="evenodd" d="M10.0819 7.47925L9.54954 7.74627C10.5873 8.58431 11.0947 9.6668 11.189 10.9767C11.1101 13.505 9.91723 15.13 7.86806 15.8269C5.50059 16.5402 4.00041 15.9631 2.54875 14.484L2.45731 15.0525L3.0475 15.6675C5.10049 17.807 8.50425 17.8772 10.6437 15.8243C12.7831 13.7712 12.8534 10.3675 10.8003 8.22796L10.0819 7.47925Z" fill="#FEEF7C"/>
<path fill-rule="evenodd" clip-rule="evenodd" d="M2.16529 14.7357L2.52195 14.4242C1.04009 12.3243 0.978002 9.24995 3.00598 7.55745C4.50923 6.30288 7.49201 5.6526 9.87835 7.75369L10.0565 7.44036L9.47496 6.83427C7.42187 4.69483 4.01821 4.62458 1.87866 6.67766C-0.26078 8.73064 -0.330925 12.1344 1.72205 14.2738L2.16529 14.7357Z" fill="#5CD3CB"/>
<path d="M0.883163 11.2661C0.883163 14.2387 3.29334 16.6489 6.26594 16.6489C9.23908 16.6489 11.6491 14.2387 11.6491 11.2661C11.6491 8.29298 9.23908 5.88281 6.26594 5.88281C3.29334 5.88281 0.883163 8.29298 0.883163 11.2661ZM4.62981 12.2397C4.6864 12.0606 4.62346 11.8654 4.47299 11.753C4.07458 11.4555 3.2891 10.8689 2.76131 10.4747C2.68512 10.4178 2.65397 10.3185 2.68396 10.2282C2.71394 10.138 2.79829 10.0771 2.89344 10.0771H4.93911C5.12952 10.0771 5.29842 9.95508 5.35829 9.77442C5.51956 9.28732 5.84009 8.31926 6.05265 7.67757C6.08253 7.5874 6.16677 7.52636 6.26181 7.52626C6.35686 7.52615 6.44142 7.58687 6.47151 7.67693C6.68629 8.31916 7.01063 9.2888 7.17349 9.77569C7.23379 9.95571 7.40237 10.0771 7.59225 10.0771C8.07617 10.0771 9.00841 10.0771 9.64311 10.0771C9.73794 10.0771 9.82229 10.1378 9.85238 10.2278C9.88247 10.3179 9.85175 10.4171 9.77588 10.4742C9.24968 10.8706 8.46377 11.4625 8.06621 11.7619C7.91659 11.8745 7.85439 12.0694 7.91087 12.2478C8.06462 12.7334 8.37296 13.707 8.58128 14.3647C8.61032 14.4566 8.57641 14.5568 8.49747 14.6121C8.41853 14.6674 8.31288 14.6652 8.23638 14.6065C7.70775 14.2007 6.9354 13.6078 6.53095 13.2975C6.3719 13.1754 6.15066 13.1757 5.99204 13.2984C5.59151 13.6081 4.82965 14.1972 4.30547 14.6025C4.22918 14.6615 4.12332 14.6642 4.04417 14.6089C3.96502 14.5536 3.9309 14.4534 3.95993 14.3614C4.16825 13.7018 4.47617 12.7265 4.62981 12.2397Z" fill="white"/>
<g clip-path="url(#clip0_200_2039)">
<path d="M99.9827 8.62324C99.9414 8.49595 99.8314 8.40318 99.699 8.38397L95.9789 7.84338L94.3152 4.47245C94.256 4.35245 94.1338 4.27649 94 4.27649C93.8661 4.27649 93.7439 4.35245 93.6847 4.47245L92.0209 7.84338L88.301 8.38397C88.1686 8.40318 88.0585 8.49595 88.0172 8.62321C87.9758 8.7505 88.0103 8.89021 88.1061 8.98361L90.7979 11.6075L90.1625 15.3126C90.1399 15.4445 90.1941 15.5777 90.3024 15.6564C90.3636 15.7009 90.4362 15.7236 90.5091 15.7236C90.565 15.7236 90.6212 15.7102 90.6726 15.6832L94 13.9338L97.3271 15.6831C97.4456 15.7454 97.5891 15.7351 97.6974 15.6564C97.8056 15.5777 97.8599 15.4444 97.8373 15.3125L97.2017 11.6075L99.8938 8.98359C99.9896 8.89021 100.024 8.7505 99.9827 8.62324Z" fill="#FFE55C"/>
</g>
<g clip-path="url(#clip1_200_2039)">
<path d="M119.983 8.62324C119.941 8.49595 119.831 8.40318 119.699 8.38397L115.979 7.84338L114.315 4.47245C114.256 4.35245 114.134 4.27649 114 4.27649C113.866 4.27649 113.744 4.35245 113.685 4.47245L112.021 7.84338L108.301 8.38397C108.169 8.40318 108.059 8.49595 108.017 8.62321C107.976 8.7505 108.01 8.89021 108.106 8.98361L110.798 11.6075L110.163 15.3126C110.14 15.4445 110.194 15.5777 110.302 15.6564C110.364 15.7009 110.436 15.7236 110.509 15.7236C110.565 15.7236 110.621 15.7102 110.673 15.6832L114 13.9338L117.327 15.6831C117.446 15.7454 117.589 15.7351 117.697 15.6564C117.806 15.5777 117.86 15.4444 117.837 15.3125L117.202 11.6075L119.894 8.98359C119.99 8.89021 120.024 8.7505 119.983 8.62324Z" fill="#FFE55C"/>
</g>
<g clip-path="url(#clip2_200_2039)">
<path d="M139.983 8.62324C139.941 8.49595 139.831 8.40318 139.699 8.38397L135.979 7.84338L134.315 4.47245C134.256 4.35245 134.134 4.27649 134 4.27649C133.866 4.27649 133.744 4.35245 133.685 4.47245L132.021 7.84338L128.301 8.38397C128.169 8.40318 128.059 8.49595 128.017 8.62321C127.976 8.7505 128.01 8.89021 128.106 8.98361L130.798 11.6075L130.163 15.3126C130.14 15.4445 130.194 15.5777 130.302 15.6564C130.364 15.7009 130.436 15.7236 130.509 15.7236C130.565 15.7236 130.621 15.7102 130.673 15.6832L134 13.9338L137.327 15.6831C137.446 15.7454 137.589 15.7351 137.697 15.6564C137.806 15.5777 137.86 15.4444 137.837 15.3125L137.202 11.6075L139.894 8.98359C139.99 8.89021 140.024 8.7505 139.983 8.62324Z" fill="#FFE55C"/>
</g>
<g clip-path="url(#clip3_200_2039)">
<path d="M159.983 8.62324C159.941 8.49595 159.831 8.40318 159.699 8.38397L155.979 7.84338L154.315 4.47245C154.256 4.35245 154.134 4.27649 154 4.27649C153.866 4.27649 153.744 4.35245 153.685 4.47245L152.021 7.84338L148.301 8.38397C148.169 8.40318 148.059 8.49595 148.017 8.62321C147.976 8.7505 148.01 8.89021 148.106 8.98361L150.798 11.6075L150.163 15.3126C150.14 15.4445 150.194 15.5777 150.302 15.6564C150.364 15.7009 150.436 15.7236 150.509 15.7236C150.565 15.7236 150.621 15.7102 150.673 15.6832L154 13.9338L157.327 15.6831C157.446 15.7454 157.589 15.7351 157.697 15.6564C157.806 15.5777 157.86 15.4444 157.837 15.3125L157.202 11.6075L159.894 8.98359C159.99 8.89021 160.024 8.7505 159.983 8.62324Z" fill="#FFE55C"/>
</g>
<g clip-path="url(#clip4_200_2039)">
<path d="M179.983 8.62324C179.941 8.49595 179.831 8.40318 179.699 8.38397L175.979 7.84338L174.315 4.47245C174.256 4.35245 174.134 4.27649 174 4.27649C173.866 4.27649 173.744 4.35245 173.685 4.47245L172.021 7.84338L168.301 8.38397C168.169 8.40318 168.059 8.49595 168.017 8.62321C167.976 8.7505 168.01 8.89021 168.106 8.98361L170.798 11.6075L170.163 15.3126C170.14 15.4445 170.194 15.5777 170.302 15.6564C170.364 15.7009 170.436 15.7236 170.509 15.7236C170.565 15.7236 170.621 15.7102 170.673 15.6832L174 13.9338L177.327 15.6831C177.446 15.7454 177.589 15.7351 177.697 15.6564C177.806 15.5777 177.86 15.4444 177.837 15.3125L177.202 11.6075L179.894 8.98359C179.99 8.89021 180.024 8.7505 179.983 8.62324Z" fill="#69746F"/>
</g>
<path d="M194 13V10.804H195.308V9.676H194V4.6H192.704L188.348 9.796V10.804H192.704V13H194ZM192.704 6.292V9.676H189.848L192.704 6.292ZM197.047 13.096C197.515 13.096 197.887 12.724 197.887 12.244C197.887 11.776 197.491 11.404 197.047 11.404C196.567 11.404 196.195 11.776 196.195 12.244C196.195 12.724 196.567 13.096 197.047 13.096ZM201.973 4.444C201.133 4.444 200.425 4.72 199.861 5.26C199.297 5.8 199.021 6.496 199.021 7.348C199.021 8.152 199.273 8.8 199.789 9.292C200.305 9.784 200.953 10.024 201.721 10.024C202.681 10.024 203.401 9.712 203.893 9.076C203.857 9.88 203.629 10.552 203.197 11.116C202.777 11.68 202.153 11.956 201.349 11.956C200.737 11.956 200.161 11.776 199.645 11.428V12.628C200.173 12.976 200.785 13.156 201.493 13.156C202.669 13.156 203.593 12.7 204.253 11.788C204.913 10.864 205.249 9.736 205.249 8.38C205.249 7.144 204.961 6.184 204.373 5.488C203.797 4.792 202.993 4.444 201.973 4.444ZM202.057 5.608C203.161 5.608 203.833 6.376 203.929 7.624C203.821 7.996 203.581 8.32 203.221 8.572C202.873 8.824 202.489 8.956 202.069 8.956C201.577 8.956 201.157 8.812 200.821 8.512C200.497 8.212 200.329 7.816 200.329 7.324C200.329 6.832 200.497 6.424 200.821 6.1C201.145 5.776 201.565 5.608 202.057 5.608Z" fill="white"/>
<defs>
<clipPath id="clip0_200_2039">
<rect width="12" height="12" fill="white" transform="translate(88 4)"/>
</clipPath>
<clipPath id="clip1_200_2039">
<rect width="12" height="12" fill="white" transform="translate(108 4)"/>
</clipPath>
<clipPath id="clip2_200_2039">
<rect width="12" height="12" fill="white" transform="translate(128 4)"/>
</clipPath>
<clipPath id="clip3_200_2039">
<rect width="12" height="12" fill="white" transform="translate(148 4)"/>
</clipPath>
<clipPath id="clip4_200_2039">
<rect width="12" height="12" fill="white" transform="translate(168 4)"/>
</clipPath>
</defs>
</svg>
