<svg width="56" height="56" viewBox="0 0 56 56" fill="none" xmlns="http://www.w3.org/2000/svg">
<g clip-path="url(#clip0_200_16)">
<path d="M47.8087 8.19365C36.8854 -2.73078 19.1133 -2.73077 8.192 8.19101C-2.73137 19.1128 -2.73031 36.8854 8.19305 47.8093C19.1133 58.7306 36.8854 58.7306 47.8077 47.8072C58.73 36.8854 58.7295 19.1138 47.8087 8.19365ZM44.7521 44.7527C35.5152 53.9896 20.485 53.9907 11.2476 44.7538C2.00853 35.5153 2.00959 20.4835 11.2476 11.2466C20.4845 2.01018 35.5141 2.00913 44.7532 11.2476C53.9901 20.4845 53.989 35.5163 44.7521 44.7527ZM17.5509 20.4185C17.5509 18.6107 19.0172 17.1444 20.825 17.1444C22.6324 17.1444 24.0987 18.6101 24.0987 20.4185C24.0987 22.2275 22.6324 23.6932 20.825 23.6932C19.0172 23.6932 17.5509 22.2275 17.5509 20.4185ZM32.3968 20.4185C32.3968 18.6107 33.8641 17.1444 35.672 17.1444C37.4794 17.1444 38.9456 18.6101 38.9456 20.4185C38.9456 22.2275 37.4799 23.6932 35.672 23.6932C33.8641 23.6932 32.3968 22.2275 32.3968 20.4185ZM40.1374 33.8283C38.1082 38.5207 33.3562 41.5525 28.0318 41.5525C22.5928 41.5525 17.8128 38.5054 15.8539 33.7892C15.5181 32.9819 15.9009 32.0547 16.7092 31.7189C16.9078 31.6371 17.1137 31.598 17.3165 31.598C17.9374 31.598 18.5266 31.965 18.7796 32.5748C20.2458 36.105 23.8774 38.385 28.0318 38.385C32.0921 38.385 35.7026 36.1035 37.2296 32.5711C37.5771 31.768 38.5095 31.3979 39.3121 31.7458C40.1147 32.0938 40.4848 33.0257 40.1374 33.8283Z" fill="url(#paint0_linear_200_16)"/>
</g>
<defs>
<linearGradient id="paint0_linear_200_16" x1="-1.17268e-08" y1="33.3846" x2="55.9993" y2="33.3846" gradientUnits="userSpaceOnUse">
<stop stop-color="#7DE310"/>
<stop offset="1" stop-color="#0EEB81"/>
</linearGradient>
<clipPath id="clip0_200_16">
<rect width="56" height="56" fill="white"/>
</clipPath>
</defs>
</svg>
