<svg width="56" height="56" viewBox="0 0 56 56" fill="none" xmlns="http://www.w3.org/2000/svg">
<g clip-path="url(#clip0_200_536)">
<path d="M52.8978 23.3144C51.7798 22.6235 50.5352 22.4828 49.4375 22.5909V21.4375C49.4375 9.64698 39.7891 0 28 0C16.2095 0 6.5625 9.64841 6.5625 21.4375V22.5909C5.46481 22.4827 4.22013 22.6235 3.1022 23.3144C1.04366 24.5866 0 27.2671 0 31.2812C0 35.3021 1.04563 37.9968 3.10789 39.2906C4.1323 39.9333 5.32864 40.1565 6.5625 40.0504V41.2344C6.5625 42.1404 7.29706 42.875 8.20312 42.875H14.7656C15.6717 42.875 16.4062 42.1404 16.4062 41.2344V21.4375C16.4062 20.5314 15.6717 19.7969 14.7656 19.7969H9.91867C10.7508 10.5515 18.5417 3.28125 28 3.28125C37.4583 3.28125 45.2492 10.5515 46.0813 19.7969H41.2344C40.3283 19.7969 39.5938 20.5314 39.5938 21.4375V41.2344C39.5938 42.1404 40.3283 42.875 41.2344 42.875H46.1562V44.5156C46.1562 47.2295 43.9483 49.4375 41.2344 49.4375H35.9209C35.2437 47.528 33.4201 46.1562 31.2812 46.1562H28C25.2861 46.1562 23.0781 48.3642 23.0781 51.0781C23.0781 53.792 25.2861 56 28 56H31.2812C33.4201 56 35.2437 54.6282 35.9209 52.7188H41.2344C45.7576 52.7188 49.4375 49.0388 49.4375 44.5156C49.4375 42.5172 49.4375 41.3471 49.4375 40.0503C50.6715 40.1564 51.8679 39.933 52.8921 39.2905C54.9544 37.9968 56 35.3021 56 31.2812C56 27.2671 54.9563 24.5866 52.8978 23.3144ZM6.5625 36.7479C6.03903 36.839 5.38475 36.8454 4.85166 36.5109C3.83895 35.8757 3.28125 34.0184 3.28125 31.2812C3.28125 28.5704 3.82648 26.7346 4.81644 26.1123C5.35172 25.7757 6.02612 25.7997 6.5625 25.9056V36.7479ZM13.125 23.0781V39.5938H9.84375V23.0781H13.125ZM31.2812 52.7188H28C27.0954 52.7188 26.3594 51.9828 26.3594 51.0781C26.3594 50.1735 27.0954 49.4375 28 49.4375H31.2812C32.1859 49.4375 32.9219 50.1735 32.9219 51.0781C32.9219 51.9828 32.1859 52.7188 31.2812 52.7188ZM46.1562 39.5938H42.875V23.0781H46.1562V39.5938ZM51.16 36.5036C50.6298 36.8421 49.9683 36.8355 49.4375 36.7435V25.9057C49.9739 25.7998 50.6482 25.7759 51.1836 26.1124C52.1735 26.7346 52.7188 28.5704 52.7188 31.2812C52.7188 34.0072 52.1651 35.8619 51.16 36.5036Z" fill="url(#paint0_linear_200_536)"/>
</g>
<defs>
<linearGradient id="paint0_linear_200_536" x1="-1.17269e-08" y1="33.3846" x2="56" y2="33.3846" gradientUnits="userSpaceOnUse">
<stop stop-color="#7DE310"/>
<stop offset="1" stop-color="#0EEB81"/>
</linearGradient>
<clipPath id="clip0_200_536">
<rect width="56" height="56" fill="white"/>
</clipPath>
</defs>
</svg>
