<svg width="56" height="56" viewBox="0 0 56 56" fill="none" xmlns="http://www.w3.org/2000/svg">
<path d="M6.76778 4.66942C6.1916 4.72715 5.65745 4.99695 5.26914 5.42649C4.88083 5.85603 4.6661 6.41463 4.66667 6.99364V25.6649C4.66667 35.8732 10.5626 42.5028 16.2114 46.2683C21.8602 50.0337 27.4918 51.2768 27.4918 51.2768C27.8265 51.3514 28.1735 51.3514 28.5082 51.2768C28.5082 51.2768 34.1443 50.0337 39.7931 46.2683C45.4419 42.5028 51.3333 35.8732 51.3333 25.6649V6.99364C51.3309 6.37798 51.0852 5.78809 50.6498 5.35275C50.2144 4.9174 49.6246 4.67188 49.0089 4.66942H6.99111C6.91671 4.66586 6.84218 4.66586 6.76778 4.66942H6.76778ZM9.33835 9.33589H46.6662V25.6649C46.6662 34.1232 42.0611 39.1556 37.2089 42.3901C32.6136 45.4532 28.486 46.3789 28.0114 46.4916C27.5489 46.3823 23.3935 45.4581 18.7911 42.3901C13.9389 39.1556 9.33835 34.1232 9.33835 25.6649V9.33589ZM34.9528 18.6373C34.3466 18.6554 33.7712 18.9088 33.3485 19.3438L25.6642 27.0275L22.6515 24.0105C22.4343 23.7928 22.1764 23.6199 21.8924 23.5019C21.6084 23.3839 21.3039 23.3231 20.9964 23.3229C20.6888 23.3227 20.3843 23.3832 20.1001 23.5008C19.8159 23.6184 19.5577 23.7907 19.3403 24.0081C19.1228 24.2256 18.9503 24.4837 18.8328 24.7679C18.7152 25.052 18.6547 25.3566 18.655 25.6641C18.6552 25.9716 18.716 26.2761 18.834 26.56C18.952 26.844 19.1248 27.1021 19.3426 27.3192L24.0143 31.9857C24.231 32.203 24.4886 32.3754 24.7721 32.493C25.0556 32.6106 25.3595 32.6712 25.6664 32.6712C25.9734 32.6712 26.2773 32.6106 26.5608 32.493C26.8443 32.3754 27.1018 32.203 27.3186 31.9857L36.6574 22.6525C36.9987 22.3248 37.2323 21.9011 37.3272 21.4377C37.4222 20.9742 37.3741 20.493 37.1892 20.0575C37.0043 19.6221 36.6914 19.2529 36.292 18.9993C35.8927 18.7457 35.4256 18.6195 34.9528 18.6373Z" fill="url(#paint0_linear_200_356)"/>
<defs>
<linearGradient id="paint0_linear_200_356" x1="4.66666" y1="32.4869" x2="51.3333" y2="32.4869" gradientUnits="userSpaceOnUse">
<stop stop-color="#7DE310"/>
<stop offset="1" stop-color="#0EEB81"/>
</linearGradient>
</defs>
</svg>
