<svg width="56" height="56" viewBox="0 0 56 56" fill="none" xmlns="http://www.w3.org/2000/svg">
<path d="M36.1668 14H30.3335V9.33333C30.3335 8.71449 30.0877 8.121 29.6501 7.68342C29.2125 7.24583 28.619 7 28.0002 7C27.3813 7 26.7878 7.24583 26.3502 7.68342C25.9127 8.121 25.6668 8.71449 25.6668 9.33333V14H19.8335C15.1922 14 10.741 15.8437 7.45913 19.1256C4.17724 22.4075 2.3335 26.8587 2.3335 31.5C2.3335 36.1413 4.17724 40.5925 7.45913 43.8744C10.741 47.1563 15.1922 49 19.8335 49H36.1668C40.8081 49 45.2593 47.1563 48.5412 43.8744C51.8231 40.5925 53.6668 36.1413 53.6668 31.5C53.6668 26.8587 51.8231 22.4075 48.5412 19.1256C45.2593 15.8437 40.8081 14 36.1668 14ZM36.1668 44.3333H19.8335C16.4299 44.3333 13.1657 42.9813 10.759 40.5745C8.35224 38.1678 7.00016 34.9036 7.00016 31.5C7.00016 28.0964 8.35224 24.8322 10.759 22.4255C13.1657 20.0187 16.4299 18.6667 19.8335 18.6667H36.1668C39.5704 18.6667 42.8346 20.0187 45.2414 22.4255C47.6481 24.8322 49.0002 28.0964 49.0002 31.5C49.0002 34.9036 47.6481 38.1678 45.2414 40.5745C42.8346 42.9813 39.5704 44.3333 36.1668 44.3333Z" fill="url(#paint0_linear_200_21)"/>
<path d="M23.3331 29.1667H20.9998V26.8333C20.9998 26.2145 20.754 25.621 20.3164 25.1834C19.8788 24.7458 19.2853 24.5 18.6665 24.5C18.0476 24.5 17.4541 24.7458 17.0166 25.1834C16.579 25.621 16.3331 26.2145 16.3331 26.8333V29.1667H13.9998C13.381 29.1667 12.7875 29.4125 12.3499 29.8501C11.9123 30.2877 11.6665 30.8812 11.6665 31.5C11.6665 32.1188 11.9123 32.7123 12.3499 33.1499C12.7875 33.5875 13.381 33.8333 13.9998 33.8333H16.3331V36.1667C16.3331 36.7855 16.579 37.379 17.0166 37.8166C17.4541 38.2542 18.0476 38.5 18.6665 38.5C19.2853 38.5 19.8788 38.2542 20.3164 37.8166C20.754 37.379 20.9998 36.7855 20.9998 36.1667V33.8333H23.3331C23.952 33.8333 24.5455 33.5875 24.9831 33.1499C25.4206 32.7123 25.6665 32.1188 25.6665 31.5C25.6665 30.8812 25.4206 30.2877 24.9831 29.8501C24.5455 29.4125 23.952 29.1667 23.3331 29.1667Z" fill="url(#paint1_linear_200_21)"/>
<path d="M41.9998 30.3334C43.2885 30.3334 44.3332 29.2887 44.3332 28.0001C44.3332 26.7114 43.2885 25.6667 41.9998 25.6667C40.7111 25.6667 39.6665 26.7114 39.6665 28.0001C39.6665 29.2887 40.7111 30.3334 41.9998 30.3334Z" fill="url(#paint2_linear_200_21)"/>
<path d="M37.3333 37.3334C38.622 37.3334 39.6667 36.2888 39.6667 35.0001C39.6667 33.7114 38.622 32.6667 37.3333 32.6667C36.0447 32.6667 35 33.7114 35 35.0001C35 36.2888 36.0447 37.3334 37.3333 37.3334Z" fill="url(#paint3_linear_200_21)"/>
<defs>
<linearGradient id="paint0_linear_200_21" x1="2.3335" y1="32.0385" x2="53.6668" y2="32.0385" gradientUnits="userSpaceOnUse">
<stop stop-color="#7DE310"/>
<stop offset="1" stop-color="#0EEB81"/>
</linearGradient>
<linearGradient id="paint1_linear_200_21" x1="11.6665" y1="32.8462" x2="25.6665" y2="32.8462" gradientUnits="userSpaceOnUse">
<stop stop-color="#7DE310"/>
<stop offset="1" stop-color="#0EEB81"/>
</linearGradient>
<linearGradient id="paint2_linear_200_21" x1="39.6665" y1="28.4488" x2="44.3332" y2="28.4488" gradientUnits="userSpaceOnUse">
<stop stop-color="#7DE310"/>
<stop offset="1" stop-color="#0EEB81"/>
</linearGradient>
<linearGradient id="paint3_linear_200_21" x1="35" y1="35.4488" x2="39.6667" y2="35.4488" gradientUnits="userSpaceOnUse">
<stop stop-color="#7DE310"/>
<stop offset="1" stop-color="#0EEB81"/>
</linearGradient>
</defs>
</svg>
