<svg width="56" height="20" viewBox="0 0 56 20" fill="none" xmlns="http://www.w3.org/2000/svg">
<path d="M13.3704 13.4815H11.0917L12.517 4.66896H14.7955L13.3704 13.4815Z" fill="white"/>
<path d="M21.6307 4.8844C21.1812 4.70609 20.4684 4.50922 19.5869 4.50922C17.3367 4.50922 15.7521 5.70916 15.7423 7.42472C15.7237 8.69045 16.8769 9.39347 17.7394 9.81551C18.621 10.2468 18.9206 10.5282 18.9206 10.9127C18.9117 11.503 18.2083 11.7752 17.5522 11.7752C16.6425 11.7752 16.155 11.6349 15.4143 11.3064L15.1142 11.1656L14.7953 13.1438C15.3298 13.3873 16.3144 13.6034 17.3367 13.6128C19.7276 13.6128 21.2841 12.4315 21.3026 10.6033C21.3117 9.60007 20.7027 8.83138 19.3899 8.20325C18.5929 7.80003 18.1049 7.52814 18.1049 7.11557C18.1142 6.74051 18.5177 6.35636 19.4173 6.35636C20.1581 6.33754 20.7024 6.5156 21.1147 6.69379L21.3208 6.78736L21.6307 4.8844Z" fill="white"/>
<path d="M24.6592 10.3595C24.8468 9.85326 25.5689 7.89385 25.5689 7.89385C25.5594 7.91267 25.7562 7.37824 25.8687 7.05016L26.028 7.8095C26.028 7.8095 26.4595 9.91893 26.5532 10.3595C26.197 10.3595 25.1092 10.3595 24.6592 10.3595ZM27.4719 4.66896H25.7093C25.1658 4.66896 24.7529 4.82821 24.5184 5.40014L21.1337 13.4814H23.5246C23.5246 13.4814 23.9183 12.3937 24.0029 12.1594C24.2652 12.1594 26.591 12.1594 26.9285 12.1594C26.9939 12.4688 27.2004 13.4814 27.2004 13.4814H29.3102L27.4719 4.66896Z" fill="white"/>
<path d="M9.18855 4.66896L6.957 10.6783C6.54444 9.27198 5.31831 7.22219 3.87439 6.46247L5.60679 13.4722H8.01639L11.598 4.66896H9.18855Z" fill="white"/>
<path d="M4.88478 4.66896H1.21866L1.18115 4.84702C4.04095 5.57833 5.93494 7.34111 6.7131 9.45989L5.91613 5.40974C5.78492 4.8469 5.3817 4.68753 4.88478 4.66896Z" fill="white"/>
<path d="M38.6196 17.5787V16.5764C38.6254 16.4921 38.6132 16.4075 38.5838 16.3283C38.5544 16.2491 38.5085 16.177 38.449 16.117C38.3896 16.0569 38.3181 16.0102 38.2391 15.9799C38.1602 15.9497 38.0758 15.9366 37.9914 15.9416C37.881 15.9343 37.7707 15.9569 37.672 16.0068C37.5732 16.0568 37.4897 16.1323 37.4301 16.2256C37.3758 16.1351 37.2981 16.061 37.2052 16.011C37.1123 15.961 37.0076 15.937 36.9022 15.9416C36.8103 15.9369 36.7188 15.9564 36.6368 15.998C36.5547 16.0396 36.485 16.1019 36.4345 16.1788V15.9817H36.087V17.5787H36.4378V16.7C36.4303 16.6454 36.435 16.5898 36.4515 16.5372C36.4681 16.4846 36.496 16.4363 36.5333 16.3958C36.5707 16.3553 36.6165 16.3235 36.6676 16.3027C36.7187 16.2819 36.7737 16.2727 36.8287 16.2757C37.0593 16.2757 37.1762 16.426 37.1762 16.6967V17.5854H37.527V16.7C37.5199 16.6454 37.5248 16.59 37.5414 16.5375C37.558 16.4851 37.586 16.4369 37.6233 16.3964C37.6605 16.356 37.7063 16.3242 37.7572 16.3033C37.8081 16.2824 37.863 16.273 37.9179 16.2757C38.1552 16.2757 38.2688 16.426 38.2688 16.6967V17.5854L38.6196 17.5787ZM43.8101 15.9817H43.2388V15.4972H42.8879V15.9817H42.5705V16.2991H42.8946V17.0341C42.8946 17.405 43.0383 17.6255 43.4493 17.6255C43.6028 17.626 43.7534 17.5832 43.8836 17.5019L43.7834 17.2045C43.6902 17.2601 43.5844 17.2911 43.476 17.2947C43.3089 17.2947 43.2455 17.1878 43.2455 17.0274V16.2991H43.8135L43.8101 15.9817ZM46.7737 15.9416C46.689 15.9391 46.6052 15.9595 46.5311 16.0006C46.457 16.0418 46.3954 16.1022 46.3527 16.1754V15.9817H46.0086V17.5787H46.3561V16.6833C46.3561 16.4193 46.4697 16.2723 46.6902 16.2723C46.7645 16.2713 46.8383 16.2849 46.9074 16.3124L47.0143 15.9783C46.9349 15.9499 46.8513 15.9352 46.7671 15.9349L46.7737 15.9416ZM42.2932 16.1086C42.0965 15.9917 41.8704 15.9337 41.6417 15.9416C41.2374 15.9416 40.9734 16.1353 40.9734 16.4528C40.9734 16.7134 41.1672 16.8737 41.5247 16.9239L41.6918 16.9473C41.8822 16.974 41.9725 17.0241 41.9725 17.1143C41.9725 17.2379 41.8455 17.3081 41.6083 17.3081C41.4175 17.3136 41.2303 17.2548 41.077 17.141L40.91 17.4117C41.1124 17.553 41.3548 17.6256 41.6016 17.6188C42.0627 17.6188 42.33 17.4017 42.33 17.0976C42.33 16.7936 42.1195 16.6699 41.772 16.6198L41.6049 16.5964C41.4546 16.5764 41.3343 16.5463 41.3343 16.4394C41.3343 16.3325 41.4479 16.2523 41.6383 16.2523C41.8144 16.2543 41.9869 16.3015 42.1395 16.3893L42.2932 16.1086ZM51.6001 15.9416C51.5153 15.9391 51.4315 15.9595 51.3574 16.0006C51.2833 16.0418 51.2217 16.1022 51.1791 16.1754V15.9817H50.8349V17.5787H51.1824V16.6833C51.1824 16.4193 51.296 16.2723 51.5165 16.2723C51.5909 16.2713 51.6647 16.2849 51.7337 16.3124L51.8406 15.9783C51.7613 15.9499 51.6777 15.9352 51.5934 15.9349L51.6001 15.9416ZM47.1229 16.7769C47.1188 16.8891 47.1381 17.0009 47.1797 17.1053C47.2213 17.2096 47.2842 17.3041 47.3644 17.3827C47.4445 17.4614 47.5403 17.5224 47.6454 17.5619C47.7505 17.6014 47.8628 17.6185 47.9749 17.6121C48.1835 17.6228 48.3886 17.5548 48.5496 17.4217L48.3825 17.141C48.2624 17.2326 48.1159 17.283 47.9649 17.2847C47.8364 17.2743 47.7166 17.216 47.6292 17.1212C47.5419 17.0265 47.4934 16.9024 47.4934 16.7735C47.4934 16.6447 47.5419 16.5205 47.6292 16.4258C47.7166 16.3311 47.8364 16.2727 47.9649 16.2623C48.1159 16.264 48.2624 16.3144 48.3825 16.406L48.5496 16.1253C48.3886 15.9922 48.1835 15.9243 47.9749 15.9349C47.8628 15.9285 47.7505 15.9456 47.6454 15.9852C47.5403 16.0247 47.4445 16.0857 47.3644 16.1643C47.2842 16.2429 47.2213 16.3374 47.1797 16.4418C47.1381 16.5461 47.1188 16.6579 47.1229 16.7702V16.7769ZM50.3772 16.7769V15.9817H50.0297V16.1754C49.9707 16.0995 49.8945 16.0387 49.8073 15.998C49.7202 15.9574 49.6246 15.938 49.5285 15.9416C49.307 15.9416 49.0945 16.0296 48.9379 16.1862C48.7812 16.3429 48.6932 16.5553 48.6932 16.7769C48.6932 16.9984 48.7812 17.2109 48.9379 17.3675C49.0945 17.5241 49.307 17.6121 49.5285 17.6121C49.6246 17.6157 49.7202 17.5963 49.8073 17.5557C49.8945 17.515 49.9707 17.4542 50.0297 17.3783V17.5721H50.3772V16.7769ZM49.0842 16.7769C49.0897 16.6828 49.1226 16.5925 49.1788 16.517C49.2351 16.4414 49.3122 16.384 49.4006 16.3517C49.4891 16.3194 49.5851 16.3137 49.6768 16.3353C49.7684 16.3569 49.8518 16.4048 49.9166 16.4732C49.9813 16.5415 50.0247 16.6273 50.0413 16.72C50.058 16.8127 50.0471 16.9082 50.0101 16.9948C49.9732 17.0814 49.9117 17.1554 49.8332 17.2074C49.7548 17.2595 49.6628 17.2876 49.5686 17.2881C49.5025 17.2889 49.4369 17.276 49.3759 17.2503C49.315 17.2245 49.2601 17.1865 49.2146 17.1384C49.1691 17.0904 49.134 17.0335 49.1115 16.9713C49.0891 16.9091 49.0798 16.8429 49.0842 16.7769ZM44.891 15.9416C44.6694 15.9447 44.4582 16.0356 44.3038 16.1945C44.1493 16.3533 44.0643 16.567 44.0674 16.7885C44.0705 17.0101 44.1615 17.2213 44.3203 17.3758C44.4791 17.5302 44.6928 17.6153 44.9144 17.6121C45.1547 17.6245 45.3911 17.5471 45.5776 17.395L45.4105 17.1377C45.2786 17.2435 45.1152 17.3023 44.9461 17.3048C44.8312 17.3146 44.7171 17.2793 44.6278 17.2063C44.5386 17.1333 44.4814 17.0284 44.4683 16.9138H45.6544C45.6544 16.8704 45.6544 16.827 45.6544 16.7802C45.6544 16.279 45.3437 15.9449 44.896 15.9449L44.891 15.9416ZM44.891 16.2523C44.943 16.2512 44.9947 16.2603 45.0431 16.2792C45.0916 16.2981 45.1359 16.3263 45.1734 16.3623C45.211 16.3983 45.241 16.4414 45.262 16.489C45.2829 16.5366 45.2942 16.5879 45.2953 16.6399H44.46C44.466 16.5326 44.5138 16.432 44.5931 16.3596C44.6724 16.2871 44.7769 16.2486 44.8843 16.2523H44.891ZM53.5964 16.7802V15.3401H53.2623V16.1754C53.2033 16.0995 53.1271 16.0387 53.0399 15.998C52.9528 15.9574 52.8572 15.938 52.7611 15.9416C52.5396 15.9416 52.3271 16.0296 52.1705 16.1862C52.0138 16.3429 51.9258 16.5553 51.9258 16.7769C51.9258 16.9984 52.0138 17.2109 52.1705 17.3675C52.3271 17.5241 52.5396 17.6121 52.7611 17.6121C52.8572 17.6157 52.9528 17.5963 53.0399 17.5557C53.1271 17.515 53.2033 17.4542 53.2623 17.3783V17.5721H53.5964V16.7802ZM54.1761 17.3465C54.1978 17.3463 54.2194 17.3502 54.2396 17.3582C54.2588 17.366 54.2763 17.3774 54.2914 17.3916C54.3061 17.406 54.318 17.423 54.3265 17.4418C54.3349 17.4613 54.3393 17.4823 54.3393 17.5036C54.3393 17.5248 54.3349 17.5459 54.3265 17.5654C54.318 17.5841 54.3061 17.6011 54.2914 17.6155C54.2763 17.6297 54.2588 17.6411 54.2396 17.6489C54.2196 17.6577 54.198 17.6623 54.1761 17.6623C54.1444 17.662 54.1135 17.6528 54.0869 17.6356C54.0603 17.6185 54.0391 17.5941 54.0258 17.5654C54.0174 17.5458 54.0131 17.5248 54.0131 17.5036C54.0131 17.4823 54.0174 17.4613 54.0258 17.4418C54.0343 17.423 54.0462 17.406 54.0608 17.3916C54.0759 17.3774 54.0934 17.366 54.1126 17.3582C54.1344 17.3496 54.1577 17.3456 54.1811 17.3465H54.1761ZM54.1761 17.6289C54.1928 17.629 54.2093 17.6255 54.2246 17.6188C54.2389 17.6124 54.252 17.6033 54.263 17.5921C54.2839 17.5693 54.2955 17.5395 54.2955 17.5086C54.2955 17.4776 54.2839 17.4478 54.263 17.425C54.252 17.4138 54.239 17.4047 54.2246 17.3983C54.2093 17.3917 54.1928 17.3882 54.1761 17.3883C54.1595 17.3884 54.143 17.3918 54.1277 17.3983C54.1127 17.4045 54.099 17.4136 54.0876 17.425C54.0667 17.4478 54.0551 17.4776 54.0551 17.5086C54.0551 17.5395 54.0667 17.5693 54.0876 17.5921C54.0991 17.6036 54.1127 17.6126 54.1277 17.6188C54.1445 17.6261 54.1628 17.6295 54.1811 17.6289H54.1761ZM54.1861 17.4301C54.2017 17.4293 54.2171 17.434 54.2296 17.4434C54.2347 17.4477 54.2387 17.453 54.2413 17.4591C54.2439 17.4652 54.2451 17.4719 54.2446 17.4785C54.2449 17.4841 54.2439 17.4896 54.2419 17.4948C54.2399 17.4999 54.2368 17.5046 54.2329 17.5086C54.2232 17.5174 54.2109 17.5227 54.1978 17.5236L54.2463 17.5787H54.2079L54.1628 17.5236H54.1477V17.5787H54.116V17.4317L54.1861 17.4301ZM54.1494 17.4585V17.4985H54.1861C54.1927 17.5005 54.1996 17.5005 54.2062 17.4985C54.2074 17.4962 54.208 17.4936 54.208 17.491C54.208 17.4884 54.2074 17.4858 54.2062 17.4835C54.2074 17.4812 54.208 17.4786 54.208 17.476C54.208 17.4734 54.2074 17.4708 54.2062 17.4685C54.1996 17.4665 54.1927 17.4665 54.1861 17.4685L54.1494 17.4585ZM52.3117 16.7802C52.3173 16.6862 52.3502 16.5959 52.4064 16.5203C52.4627 16.4448 52.5398 16.3873 52.6282 16.355C52.7167 16.3228 52.8127 16.3171 52.9043 16.3386C52.996 16.3602 53.0794 16.4081 53.1441 16.4765C53.2089 16.5448 53.2523 16.6307 53.2689 16.7233C53.2855 16.816 53.2747 16.9116 53.2377 16.9982C53.2007 17.0848 53.1392 17.1587 53.0608 17.2108C52.9824 17.2629 52.8904 17.2909 52.7962 17.2914C52.7301 17.2922 52.6645 17.2794 52.6035 17.2536C52.5426 17.2279 52.4876 17.1898 52.4421 17.1418C52.3966 17.0938 52.3616 17.0369 52.3391 16.9746C52.3167 16.9124 52.3074 16.8462 52.3117 16.7802ZM40.5792 16.7802V15.9817H40.2317V16.1754C40.1727 16.0995 40.0965 16.0387 40.0093 15.998C39.9222 15.9574 39.8266 15.938 39.7305 15.9416C39.509 15.9416 39.2965 16.0296 39.1399 16.1862C38.9832 16.3429 38.8952 16.5553 38.8952 16.7769C38.8952 16.9984 38.9832 17.2109 39.1399 17.3675C39.2965 17.5241 39.509 17.6121 39.7305 17.6121C39.8266 17.6157 39.9222 17.5963 40.0093 17.5557C40.0965 17.515 40.1727 17.4542 40.2317 17.3783V17.5721H40.5792V16.7802ZM39.2862 16.7802C39.2917 16.6862 39.3246 16.5959 39.3808 16.5203C39.4371 16.4448 39.5142 16.3873 39.6026 16.355C39.6911 16.3228 39.7871 16.3171 39.8787 16.3386C39.9704 16.3602 40.0538 16.4081 40.1185 16.4765C40.1833 16.5448 40.2267 16.6307 40.2433 16.7233C40.26 16.816 40.2491 16.9116 40.2121 16.9982C40.1752 17.0848 40.1137 17.1587 40.0352 17.2108C39.9568 17.2629 39.8648 17.2909 39.7706 17.2914C39.7042 17.2927 39.6382 17.2802 39.5769 17.2546C39.5156 17.2291 39.4602 17.1911 39.4143 17.143C39.3685 17.095 39.3331 17.0379 39.3105 16.9754C39.2878 16.913 39.2784 16.8465 39.2828 16.7802H39.2862Z" fill="white"/>
<path fill-rule="evenodd" clip-rule="evenodd" d="M53.5982 11.7065C54.197 10.7499 54.5145 9.64417 54.5145 8.51566V8.51398C54.5145 7.38547 54.197 6.27973 53.5982 5.32316C52.9994 4.36659 52.1436 3.59779 51.1285 3.10463C50.1135 2.61148 48.9802 2.41387 47.8581 2.5344C46.736 2.65493 45.6705 3.08873 44.7834 3.78622C45.4994 4.34897 46.0783 5.06699 46.4764 5.88612C46.8745 6.70525 47.0813 7.60409 47.0813 8.51482C47.0813 9.42555 46.8745 10.3244 46.4764 11.1435C46.0783 11.9626 45.4994 12.6807 44.7834 13.2434C45.6705 13.9409 46.736 14.3747 47.8581 14.4952C48.9802 14.6158 50.1135 14.4182 51.1285 13.925C52.1436 13.4319 52.9994 12.663 53.5982 11.7065ZM43.0895 5.88653C42.6915 6.70593 42.4852 7.60513 42.4862 8.51606C42.4854 9.42671 42.6919 10.3256 43.0898 11.1447C43.4878 11.9638 44.0669 12.6816 44.7832 13.2438C43.896 13.9411 42.8305 14.3747 41.7085 14.495C40.5865 14.6154 39.4533 14.4177 38.4383 13.9244C37.4234 13.4312 36.5677 12.6624 35.9691 11.7059C35.3704 10.7493 35.0529 9.64366 35.0529 8.51523C35.0529 7.38679 35.3704 6.28113 35.9691 5.32459C36.5677 4.36805 37.4234 3.59924 38.4383 3.10601C39.4533 2.61279 40.5865 2.41505 41.7085 2.53541C42.8305 2.65577 43.896 3.08936 44.7832 3.78662C44.0666 4.34905 43.4874 5.06714 43.0895 5.88653Z" fill="white"/>
<path d="M46.413 8.51411C46.413 10.4517 44.7424 12.0223 44.7424 12.0223C44.7424 12.0223 43.0718 10.4517 43.0718 8.51411C43.0718 6.57657 44.7424 5.00587 44.7424 5.00587C44.7424 5.00587 46.413 6.57657 46.413 8.51411Z" fill="white"/>
</svg>
