<svg width="54" height="20" viewBox="0 0 54 20" fill="none" xmlns="http://www.w3.org/2000/svg">
<g clip-path="url(#clip0_200_2994)">
<path fill-rule="evenodd" clip-rule="evenodd" d="M4.93551 14.8512C7.82564 15.5192 10.7525 13.8891 11.473 11.2105C12.1935 8.5318 10.4349 5.8184 7.54497 5.1506C4.65569 4.4828 1.7288 6.11308 1.00867 8.79195C0.28787 11.4703 2.04656 14.1834 4.93551 14.8512ZM7.43315 8.02673C8.18042 8.26532 8.72692 8.62297 8.61955 9.28827C8.54183 9.7753 8.25055 10.0111 7.86385 10.0937C8.39484 10.35 8.66506 10.7429 8.40765 11.4242C8.08821 12.2703 7.32931 12.3417 6.32008 12.1646L6.07515 13.0745L5.48331 12.9377L5.72503 12.0401C5.57163 12.0048 5.41486 11.9673 5.25337 11.9267L5.0108 12.8285L4.41963 12.6918L4.66456 11.7803C4.60931 11.7671 4.55372 11.7537 4.49773 11.7402C4.41363 11.7199 4.32865 11.6993 4.24263 11.6793L3.47243 11.5014L3.76625 10.8734C3.76625 10.8734 4.20234 10.9809 4.19644 10.9729C4.364 11.0114 4.43834 10.9101 4.46767 10.8426L4.85471 9.40436C4.86922 9.4076 4.88344 9.4109 4.89715 9.41409C4.90398 9.41568 4.91069 9.41723 4.91725 9.41874C4.89365 9.40999 4.87224 9.40436 4.85572 9.40046L5.13183 8.37375C5.13908 8.25719 5.09576 8.11017 4.85606 8.0547C4.86533 8.04892 4.4262 7.95564 4.4262 7.95564L4.58365 7.36971L5.39986 7.55861L5.39919 7.56143C5.5219 7.58971 5.64833 7.61658 5.77712 7.64377L6.01969 6.74284L6.6112 6.87956L6.37352 7.76283C6.53231 7.79642 6.69212 7.83033 6.84771 7.86626L7.08371 6.98878L7.67555 7.12549L7.43315 8.02673ZM5.5611 11.2943C6.04402 11.4125 7.09948 11.6709 7.26728 11.0459C7.43922 10.4069 6.4156 10.194 5.91612 10.0901C5.86031 10.0785 5.81104 10.0682 5.77071 10.0589L5.44571 11.2665C5.47883 11.2741 5.51764 11.2836 5.5611 11.2943ZM6.01648 9.52964C6.41911 9.62924 7.29736 9.84648 7.45034 9.27843C7.60657 8.69739 6.75298 8.52224 6.3361 8.4367C6.28921 8.42708 6.24784 8.41859 6.21405 8.41079L5.91939 9.50608C5.94722 9.51251 5.97989 9.52059 6.01648 9.52964Z" fill="white"/>
<path d="M16.655 8.02581C17.0924 8.02581 17.4704 8.09846 17.788 8.24111C18.1071 8.38517 18.3704 8.57924 18.5816 8.8233C18.7899 9.0686 18.945 9.35532 19.0451 9.68391C19.1446 10.0134 19.1945 10.3676 19.1945 10.7469C19.1945 11.3294 19.0794 11.8797 18.8469 12.3984C18.6144 12.9179 18.2991 13.3685 17.8979 13.7529C17.497 14.1368 17.0237 14.4395 16.4778 14.663C15.9328 14.8868 15.3403 14.9987 14.7041 14.9987C14.6219 14.9987 14.4772 14.9965 14.2729 14.9926C14.0686 14.9887 13.8338 14.9691 13.5708 14.9362C13.3062 14.9019 13.0264 14.8513 12.7309 14.7835C12.4355 14.717 12.155 14.6237 11.8909 14.5052L14.2529 5.30601L16.3684 5.00211L15.5227 8.26659C15.7037 8.19096 15.8861 8.13237 16.0682 8.08971C16.2504 8.04768 16.446 8.02581 16.655 8.02581ZM14.8805 13.4431C15.1991 13.4431 15.4993 13.3704 15.7813 13.2278C16.0642 13.0849 16.3082 12.8921 16.5127 12.652C16.7172 12.4107 16.879 12.139 16.997 11.8354C17.115 11.5318 17.1747 11.2151 17.1747 10.8856C17.1747 10.4808 17.1017 10.165 16.9562 9.93672C16.8107 9.70938 16.5415 9.595 16.1506 9.595C16.0225 9.595 15.8575 9.61766 15.6528 9.65812C15.4475 9.70109 15.2638 9.79031 15.0991 9.92453L14.1986 13.3913C14.2529 13.4003 14.3009 13.4087 14.3419 13.4167C14.382 13.4253 14.4263 13.4314 14.4705 13.4356C14.5172 13.4404 14.5706 13.4429 14.6352 13.4429C14.6997 13.4429 14.7805 13.4431 14.8805 13.4431Z" fill="white"/>
<path d="M21.3888 14.8226H19.3681L21.0745 8.16688H23.109L21.3888 14.8226ZM22.372 7.35595C22.09 7.35595 21.8343 7.27814 21.6074 7.12221C21.3786 6.96721 21.2654 6.72862 21.2654 6.40706C21.2654 6.23019 21.3041 6.06425 21.381 5.90769C21.459 5.75144 21.561 5.61692 21.6888 5.50254C21.8164 5.38911 21.9642 5.29848 22.1321 5.2302C22.3011 5.16302 22.4807 5.12943 22.6722 5.12943C22.9541 5.12943 23.2085 5.20724 23.4362 5.36317C23.6631 5.51989 23.7772 5.75848 23.7772 6.07832C23.7772 6.25581 23.7386 6.42237 23.6611 6.57862C23.584 6.73487 23.4821 6.8694 23.3543 6.98377C23.2277 7.09736 23.0785 7.18767 22.9109 7.25533C22.7419 7.32361 22.5628 7.35595 22.372 7.35595Z" fill="white"/>
<path d="M24.8799 6.50865L26.9963 6.20474L26.4765 8.16659H28.7431L28.3339 9.71H26.0809L25.4808 12.0381C25.4255 12.2322 25.3942 12.4134 25.3854 12.5818C25.3754 12.751 25.3985 12.8964 25.4532 13.0187C25.5074 13.1414 25.605 13.2359 25.7466 13.3028C25.8876 13.3707 26.0893 13.4049 26.354 13.4049C26.572 13.4049 26.7844 13.3857 26.9897 13.3476C27.1938 13.3101 27.4006 13.2579 27.61 13.1896L27.7607 14.6327C27.4876 14.7255 27.192 14.8054 26.8734 14.8726C26.5543 14.9407 26.1765 14.9735 25.7399 14.9735C25.1121 14.9735 24.6255 14.8871 24.2787 14.7151C23.9325 14.5418 23.6877 14.3051 23.5412 14.0054C23.3968 13.7068 23.3322 13.3626 23.3502 12.9748C23.369 12.5861 23.4322 12.1775 23.5412 11.7472L24.8799 6.50865Z" fill="white"/>
<path d="M28.6542 12.1648C28.6542 11.5915 28.7543 11.0509 28.9544 10.5448C29.1542 10.0383 29.4419 9.59529 29.8153 9.21514C30.1873 8.83686 30.6406 8.53718 31.1741 8.31718C31.7051 8.09844 32.2997 7.98813 32.9549 7.98813C33.365 7.98813 33.7313 8.02407 34.0536 8.0961C34.3773 8.16875 34.6701 8.26266 34.9349 8.38047L34.238 9.8492C34.056 9.78076 33.867 9.72045 33.6716 9.66576C33.4761 9.60998 33.2374 9.58311 32.9551 9.58311C32.2806 9.58311 31.7474 9.79857 31.3506 10.2281C30.9553 10.6579 30.7562 11.2365 30.7562 11.9623C30.7562 12.3924 30.8564 12.7402 31.0573 13.0063C31.2572 13.2724 31.6266 13.4048 32.1628 13.4048C32.4274 13.4048 32.6828 13.3791 32.9274 13.3291C33.1739 13.2785 33.3915 13.2148 33.5831 13.1395L33.734 14.6451C33.4785 14.7369 33.1966 14.8199 32.8875 14.8926C32.5776 14.9627 32.2088 14.9991 31.7811 14.9991C31.2166 14.9991 30.7387 14.9226 30.3478 14.7718C29.9567 14.6187 29.6336 14.4154 29.379 14.1579C29.1231 13.8998 28.9394 13.5984 28.8258 13.2524C28.7122 12.9068 28.6542 12.5437 28.6542 12.1648Z" fill="white"/>
<path d="M37.6304 14.9991C37.1481 14.9991 36.7292 14.931 36.3739 14.7961C36.0196 14.6613 35.7261 14.4721 35.494 14.2268C35.2615 13.9827 35.0875 13.6935 34.9684 13.3602C34.8492 13.0271 34.7919 12.6582 34.7919 12.254C34.7919 11.747 34.8797 11.2401 35.0572 10.7346C35.2339 10.2281 35.496 9.77295 35.8429 9.36842C36.1871 8.96327 36.6117 8.63202 37.1117 8.37375C37.6112 8.11719 38.1857 7.98813 38.831 7.98813C39.3045 7.98813 39.7212 8.05641 40.0814 8.19125C40.44 8.32578 40.7353 8.51656 40.9688 8.76062C41.1997 9.00593 41.3752 9.29389 41.4932 9.62764C41.612 9.96013 41.6707 10.33 41.6707 10.7345C41.6707 11.24 41.5841 11.7468 41.4121 12.2538C41.24 12.7584 40.9846 13.2146 40.6475 13.6201C40.311 14.0246 39.8903 14.3557 39.3849 14.6129C38.8802 14.8701 38.2949 14.9991 37.6304 14.9991ZM38.6403 9.58326C38.3408 9.58326 38.0759 9.66388 37.8492 9.8231C37.6217 9.98419 37.4305 10.1867 37.2764 10.4309C37.1207 10.6762 37.0052 10.9437 36.9271 11.2345C36.8498 11.5259 36.8118 11.8014 36.8118 12.0631C36.8118 12.4854 36.8853 12.8143 37.0298 13.051C37.1763 13.2865 37.4394 13.4049 37.8219 13.4049C38.1225 13.4049 38.3859 13.3249 38.614 13.164C38.8402 13.0041 39.0316 12.8015 39.1868 12.5568C39.3416 12.3127 39.458 12.0445 39.5361 11.7532C39.6125 11.4628 39.6514 11.1857 39.6514 10.9245C39.6514 10.5032 39.5782 10.1736 39.4324 9.93716C39.2868 9.7017 39.0225 9.58326 38.6403 9.58326Z" fill="white"/>
<path d="M43.8726 14.8226H41.8502L43.5566 8.16688H45.5921L43.8726 14.8226ZM44.8543 7.35595C44.5725 7.35595 44.3169 7.27814 44.0903 7.12221C43.8628 6.96721 43.7485 6.72862 43.7485 6.40706C43.7485 6.23019 43.7878 6.06425 43.8648 5.90769C43.9418 5.75144 44.0445 5.61692 44.1723 5.50254C44.2992 5.38911 44.4484 5.29848 44.6159 5.2302C44.7838 5.16302 44.9635 5.12943 45.1543 5.12943C45.4369 5.12943 45.6921 5.20724 45.9193 5.36317C46.1467 5.51989 46.2615 5.75848 46.2615 6.07832C46.2615 6.25581 46.2207 6.42237 46.1444 6.57862C46.068 6.73487 45.9653 6.8694 45.8381 6.98377C45.71 7.09736 45.5626 7.18767 45.3947 7.25533C45.2255 7.32361 45.0461 7.35595 44.8543 7.35595Z" fill="white"/>
<path d="M47.0482 8.46955C47.2016 8.42798 47.3729 8.37799 47.5591 8.32361C47.7461 8.26924 47.9549 8.21862 48.1883 8.17299C48.419 8.12596 48.6795 8.08783 48.9659 8.0583C49.2523 8.02815 49.5786 8.01346 49.9412 8.01346C51.0069 8.01346 51.7415 8.30111 52.1471 8.8747C52.5524 9.44828 52.6225 10.2333 52.3595 11.2283L51.43 14.8219H49.396L50.2969 11.3039C50.3519 11.0842 50.395 10.8719 50.4269 10.6644C50.4591 10.4587 50.4572 10.2775 50.4196 10.1206C50.3837 9.96562 50.2991 9.83874 50.1678 9.74046C50.0344 9.64375 49.833 9.59515 49.5597 9.59515C49.2963 9.59515 49.0282 9.62141 48.7546 9.67203L47.4302 14.8218H45.3954L47.0482 8.46955Z" fill="white"/>
</g>
<defs>
<clipPath id="clip0_200_2994">
<rect width="53.3333" height="20" fill="white" transform="translate(0.0145264)"/>
</clipPath>
</defs>
</svg>
